<svg width="57" height="90" viewBox="0 0 57 90" fill="none" xmlns="http://www.w3.org/2000/svg">
<path d="M48.4744 9.57481C51.4843 14.3912 50.8162 21.0065 47.8666 25.86C54.1655 27.0403 58.0432 34.3464 56.7527 40.5939C55.4622 46.8415 50.1166 51.6853 44.1185 53.9334C38.1204 56.1816 31.5265 56.2174 25.1318 55.783C19.9402 55.4303 14.6576 54.7558 9.9726 52.501C5.28802 50.2462 1.23826 46.1617 0.213948 41.0848C-0.810359 36.0079 1.91388 30.1078 6.87439 28.543C3.30196 23.636 2.27454 16.545 5.31774 11.2964C11.4081 0.791279 38.1439 -6.95445 48.4744 9.57481Z" fill="#FBBC2F"/>
<path d="M28.8971 23.7521L30.9986 86.5603C31.0405 87.8158 30.163 88.8714 29.0386 88.9183L27.1135 88.9984C25.9344 89.0475 24.9649 87.9716 25.001 86.655L26.7419 23.7459C26.7545 23.2841 26.8841 22.8306 27.138 22.4656C27.4368 22.0365 27.8916 21.7109 28.4364 22.394C28.7327 22.7656 28.8805 23.2553 28.8971 23.7521Z" fill="#845F3B"/>
<mask id="mask0_367_214" style="mask-type:luminance" maskUnits="userSpaceOnUse" x="24" y="22" width="8" height="68">
<path d="M28.8704 23.7599L31.2234 86.7403C31.2704 87.9993 30.2878 89.0578 29.0288 89.1048L26.8733 89.1851C25.5531 89.2343 24.4676 88.1555 24.5079 86.8353L26.4572 23.7537C26.4714 23.2905 26.6164 22.8358 26.9008 22.4698C27.2353 22.0395 27.7446 21.713 28.3545 22.398C28.6863 22.7706 28.8518 23.2617 28.8704 23.7599Z" fill="white"/>
</mask>
<g mask="url(#mask0_367_214)">
<path d="M25.5185 34.4172C24.4694 35.847 24.8007 37.8894 25.6214 39.4616C26.4421 41.0338 27.6816 42.3606 28.4734 43.9474C30.1583 47.3251 29.5882 51.405 28.3235 54.9615C27.0587 58.518 25.1481 61.8393 24.1553 65.4809C23.162 69.1226 23.2423 73.3582 25.6423 76.2714" stroke="#FBBC2F" stroke-width="0.726" stroke-miterlimit="10"/>
</g>
<mask id="mask1_367_214" style="mask-type:luminance" maskUnits="userSpaceOnUse" x="24" y="22" width="8" height="68">
<path d="M28.8704 23.7599L31.2234 86.7403C31.2704 87.9993 30.2878 89.0578 29.0288 89.1048L26.8733 89.1851C25.5531 89.2343 24.4676 88.1555 24.5079 86.8353L26.4572 23.7537C26.4714 23.2905 26.6164 22.8358 26.9008 22.4698C27.2353 22.0395 27.7446 21.713 28.3545 22.398C28.6863 22.7706 28.8518 23.2617 28.8704 23.7599Z" fill="white"/>
</mask>
<g mask="url(#mask1_367_214)">
<path d="M31.0154 53.5765C28.0893 58.2105 26.6444 63.7642 26.9421 69.2366C27.2393 74.709 29.2773 80.0737 32.6883 84.363" stroke="#FBBC2F" stroke-width="0.726" stroke-miterlimit="10"/>
</g>
<mask id="mask2_367_214" style="mask-type:luminance" maskUnits="userSpaceOnUse" x="24" y="22" width="8" height="68">
<path d="M28.8704 23.7599L31.2234 86.7403C31.2704 87.9993 30.2878 89.0578 29.0288 89.1048L26.8733 89.1851C25.5531 89.2343 24.4676 88.1555 24.5079 86.8353L26.4572 23.7537C26.4714 23.2905 26.6164 22.8358 26.9008 22.4698C27.2353 22.0395 27.7446 21.713 28.3545 22.398C28.6863 22.7706 28.8518 23.2617 28.8704 23.7599Z" fill="white"/>
</mask>
<g mask="url(#mask2_367_214)">
<path d="M30.5292 61.3505C28.2202 66.5492 28.9255 72.9648 32.3089 77.5375" stroke="#FBBC2F" stroke-width="0.726" stroke-miterlimit="10"/>
</g>
<mask id="mask3_367_214" style="mask-type:luminance" maskUnits="userSpaceOnUse" x="24" y="22" width="8" height="68">
<path d="M28.8704 23.7599L31.2234 86.7403C31.2704 87.9993 30.2878 89.0578 29.0288 89.1048L26.8733 89.1851C25.5531 89.2343 24.4676 88.1555 24.5079 86.8353L26.4572 23.7537C26.4714 23.2905 26.6164 22.8358 26.9008 22.4698C27.2353 22.0395 27.7446 21.713 28.3545 22.398C28.6863 22.7706 28.8518 23.2617 28.8704 23.7599Z" fill="white"/>
</mask>
<g mask="url(#mask3_367_214)">
<path d="M21.8015 78.3822C27.2385 80.1944 31.2918 85.5648 31.5437 91.2901" stroke="#FBBC2F" stroke-width="0.726" stroke-miterlimit="10"/>
</g>
<mask id="mask4_367_214" style="mask-type:luminance" maskUnits="userSpaceOnUse" x="24" y="22" width="8" height="68">
<path d="M28.8704 23.7599L31.2234 86.7403C31.2704 87.9993 30.2878 89.0578 29.0288 89.1048L26.8733 89.1851C25.5531 89.2343 24.4676 88.1555 24.5079 86.8353L26.4572 23.7537C26.4714 23.2905 26.6164 22.8358 26.9008 22.4698C27.2353 22.0395 27.7446 21.713 28.3545 22.398C28.6863 22.7706 28.8518 23.2617 28.8704 23.7599Z" fill="white"/>
</mask>
<g mask="url(#mask4_367_214)">
<path d="M22.187 82.7837C25.7865 83.8373 28.6114 87.1577 29.0741 90.8797" stroke="#FBBC2F" stroke-width="0.726" stroke-miterlimit="10"/>
</g>
<mask id="mask5_367_214" style="mask-type:luminance" maskUnits="userSpaceOnUse" x="24" y="22" width="8" height="68">
<path d="M28.8704 23.7599L31.2234 86.7403C31.2704 87.9993 30.2878 89.0578 29.0288 89.1048L26.8733 89.1851C25.5531 89.2343 24.4676 88.1555 24.5079 86.8353L26.4572 23.7537C26.4714 23.2905 26.6164 22.8358 26.9008 22.4698C27.2353 22.0395 27.7446 21.713 28.3545 22.398C28.6863 22.7706 28.8518 23.2617 28.8704 23.7599Z" fill="white"/>
</mask>
<g mask="url(#mask5_367_214)">
<path d="M24.6948 42.3921C26.9009 43.8086 27.7765 46.7337 27.3817 49.3253C26.9869 51.9169 25.5403 54.226 23.9326 56.2968" stroke="#FBBC2F" stroke-width="0.726" stroke-miterlimit="10"/>
</g>
<mask id="mask6_367_214" style="mask-type:luminance" maskUnits="userSpaceOnUse" x="24" y="22" width="8" height="68">
<path d="M28.8704 23.7599L31.2234 86.7403C31.2704 87.9993 30.2878 89.0578 29.0288 89.1048L26.8733 89.1851C25.5531 89.2343 24.4676 88.1555 24.5079 86.8353L26.4572 23.7537C26.4714 23.2905 26.6164 22.8358 26.9008 22.4698C27.2353 22.0395 27.7446 21.713 28.3545 22.398C28.6863 22.7706 28.8518 23.2617 28.8704 23.7599Z" fill="white"/>
</mask>
<g mask="url(#mask6_367_214)">
<path d="M27.6741 21.6008C26.2781 23.4858 26.2577 26.0973 26.9306 28.3447C27.6036 30.592 28.8795 32.6003 29.9406 34.6924C31.0022 36.7844 31.8734 39.0881 31.6347 41.4216" stroke="#FBBC2F" stroke-width="0.726" stroke-miterlimit="10"/>
</g>
<mask id="mask7_367_214" style="mask-type:luminance" maskUnits="userSpaceOnUse" x="24" y="22" width="8" height="68">
<path d="M28.8704 23.7599L31.2234 86.7403C31.2704 87.9993 30.2878 89.0578 29.0288 89.1048L26.8733 89.1851C25.5531 89.2344 24.4676 88.1555 24.5079 86.8353L26.4572 23.7537C26.4714 23.2905 26.6164 22.8358 26.9008 22.4698C27.2353 22.0395 27.7446 21.713 28.3545 22.398C28.6863 22.7706 28.8518 23.2617 28.8704 23.7599Z" fill="white"/>
</mask>
<g mask="url(#mask7_367_214)">
<path d="M25.013 25.222C24.1497 28.2058 25.3519 31.3688 26.7001 34.1671C28.0478 36.9654 29.9655 40.1262 29.832 43.2293" stroke="#FBBC2F" stroke-width="0.726" stroke-miterlimit="10"/>
</g>
<path d="M26.2533 30.2721C26.2533 30.2721 26.2111 30.2747 26.1326 30.2792C26.0483 30.2823 25.9268 30.2889 25.7804 30.2845C25.6304 30.2854 25.4525 30.273 25.2463 30.2583C25.0426 30.2339 24.8089 30.218 24.56 30.1683C24.3098 30.1248 24.0379 30.0747 23.757 29.9926C23.4722 29.9252 23.1808 29.8196 22.8782 29.7122C22.5828 29.588 22.2723 29.4642 21.9733 29.3037C21.6787 29.1338 21.3708 28.9754 21.0931 28.7647C20.9503 28.6657 20.8105 28.5624 20.6721 28.4586C20.543 28.3428 20.414 28.227 20.2866 28.1126C20.0196 27.8956 19.8102 27.6268 19.5973 27.3797C19.3715 27.1424 19.2175 26.8629 19.0538 26.614C18.9767 26.4867 18.8893 26.37 18.828 26.2445C18.7699 26.1176 18.7136 25.9947 18.6595 25.8767C18.5565 25.6398 18.4439 25.4309 18.388 25.2295C18.3312 25.0294 18.2815 24.8551 18.2407 24.7114C18.1671 24.4243 18.1249 24.2606 18.1249 24.2606C18.0703 24.0486 18.1981 23.8321 18.4106 23.7775C18.5925 23.731 18.777 23.8179 18.8609 23.9772L18.8853 24.0238C18.8853 24.0238 18.9571 24.1608 19.0831 24.4008C19.1421 24.5206 19.2135 24.6661 19.2956 24.8329C19.3737 25.0006 19.5037 25.1669 19.6155 25.3617C19.7312 25.5551 19.8568 25.7623 20.0227 25.9584C20.1842 26.1567 20.3297 26.3833 20.5315 26.5759C20.7232 26.7764 20.9112 26.9911 21.1388 27.1739L21.468 27.464L21.8286 27.7231C22.0593 27.9103 22.3237 28.0513 22.5735 28.2057C22.8277 28.353 23.0894 28.483 23.3427 28.6072C23.6053 28.7123 23.8493 28.841 24.0986 28.923C24.3426 29.0175 24.5773 29.0983 24.7973 29.1666C25.2361 29.3041 25.6109 29.3999 25.8731 29.4576C26.1366 29.5197 26.2737 29.5423 26.2821 29.5432C26.4826 29.5645 26.6281 29.7442 26.6068 29.9447C26.5878 30.1248 26.4409 30.2605 26.2657 30.2707L26.2533 30.2721Z" fill="#845F3B"/>
<path d="M29.1072 30.8634C29.1072 30.8634 29.2735 30.8186 29.565 30.7405C29.8604 30.6637 30.2774 30.5271 30.7694 30.3541C31.2605 30.1789 31.8221 29.9513 32.3961 29.6683C32.6827 29.5263 32.9711 29.3675 33.2528 29.1936C33.5398 29.0268 33.8099 28.8307 34.073 28.6293C34.3299 28.4222 34.5832 28.2114 34.8014 27.9772C35.0254 27.7479 35.2255 27.5065 35.4003 27.2603C35.7508 26.7675 35.9912 26.2529 36.1442 25.7871C36.2294 25.5568 36.272 25.3328 36.3284 25.1376C36.3625 24.9376 36.4042 24.7632 36.4202 24.6164C36.4508 24.3223 36.4774 24.1515 36.4774 24.1515L36.4832 24.1147C36.5169 23.8973 36.7205 23.7482 36.9379 23.7815C37.1202 23.8099 37.2542 23.9576 37.2732 24.1324C37.2732 24.1324 37.2937 24.3218 37.3141 24.659C37.322 24.8275 37.3087 25.0329 37.3047 25.2707C37.2803 25.5063 37.2666 25.7787 37.1934 26.0661C37.0772 26.6455 36.8318 27.3153 36.4246 27.9448C36.2219 28.2585 35.9925 28.5725 35.7202 28.8507C35.4549 29.1368 35.1607 29.3981 34.8524 29.6386C34.2287 30.1079 33.5522 30.4854 32.8939 30.7587C32.2356 31.0328 31.603 31.2231 31.0538 31.3438C30.505 31.4676 30.0397 31.5213 29.7145 31.5572C29.3915 31.5874 29.1928 31.5874 29.1928 31.5874C28.9901 31.5874 28.8259 31.4232 28.8259 31.2205C28.8259 31.051 28.9413 30.9082 29.0974 30.866L29.1072 30.8634Z" fill="#845F3B"/>
<path d="M25.8456 46.15C25.8456 46.15 25.8061 46.162 25.7325 46.1842C25.6535 46.2059 25.5382 46.2405 25.3971 46.2689C25.1123 46.335 24.7029 46.4029 24.2038 46.4375C23.7056 46.469 23.1169 46.4667 22.4888 46.378C22.1751 46.3385 21.8522 46.2636 21.5257 46.1886C21.2076 46.0764 20.8709 46.0041 20.5599 45.8492L20.0897 45.6332C19.9362 45.556 19.7934 45.4571 19.6465 45.3701C19.5037 45.277 19.3515 45.1998 19.222 45.0929C19.0934 44.9851 18.966 44.879 18.8414 44.7743C18.5796 44.5783 18.3809 44.3321 18.1862 44.1085C18.0908 43.9949 17.9901 43.8911 17.9085 43.7789C17.8344 43.6613 17.763 43.5482 17.6942 43.4391C17.562 43.2195 17.4231 43.0287 17.3437 42.8375C17.2648 42.6477 17.1956 42.4818 17.1388 42.3456C17.0336 42.0723 16.9733 41.9166 16.9733 41.9166C16.8948 41.7125 16.9964 41.4827 17.2004 41.4042C17.3748 41.3368 17.5673 41.4011 17.6689 41.5484L17.7017 41.5963C17.7017 41.5963 17.7878 41.721 17.9382 41.9383C18.0092 42.0475 18.0957 42.1796 18.1946 42.3318C18.2904 42.4844 18.439 42.6264 18.5712 42.7998C18.64 42.8841 18.7118 42.9719 18.7864 43.0629C18.864 43.1503 18.9572 43.2279 19.045 43.3149C19.2255 43.4839 19.4021 43.6746 19.6261 43.8246C19.7326 43.9053 19.8408 43.9874 19.9504 44.0703C20.0613 44.1511 20.1882 44.2132 20.3066 44.2882C20.4291 44.3574 20.5449 44.439 20.6735 44.5011C20.8039 44.5601 20.9366 44.6155 21.0657 44.6785C21.3181 44.8169 21.6064 44.8808 21.8713 44.9855C22.149 45.0569 22.4191 45.147 22.6911 45.1958C22.963 45.2455 23.2252 45.3058 23.4807 45.3302C23.7344 45.3688 23.9771 45.3857 24.202 45.4069C24.6518 45.4362 25.032 45.4464 25.296 45.4415C25.4255 45.4398 25.5275 45.4384 25.5967 45.4376C25.6691 45.434 25.7072 45.4322 25.7072 45.4322L25.7218 45.4313C25.9241 45.4216 26.0954 45.5777 26.1051 45.78C26.114 45.953 26.0027 46.1025 25.8456 46.15Z" fill="#845F3B"/>
<path d="M29.854 49.1222C29.854 49.1222 30.0639 49.1138 30.4525 49.0827C30.8371 49.0565 31.3867 48.9864 32.0362 48.8782C32.3605 48.8205 32.71 48.7518 33.0742 48.6648C33.4402 48.5836 33.8164 48.4665 34.2037 48.349C34.9689 48.0903 35.7648 47.7607 36.4741 47.3091C36.8286 47.0842 37.1719 46.8442 37.4762 46.571C37.7854 46.3026 38.0609 46.0111 38.3125 45.7148C38.4269 45.5582 38.5462 45.4087 38.6527 45.2548C38.7516 45.0959 38.8577 44.9451 38.9473 44.7898C39.0316 44.631 39.1136 44.4767 39.1926 44.3272C39.2614 44.1714 39.3279 44.0206 39.3913 43.876C39.4605 43.7332 39.496 43.5832 39.5488 43.4475C39.5972 43.3099 39.6522 43.1822 39.6819 43.054C39.7467 42.8007 39.8225 42.5824 39.8531 42.3948C39.9263 42.0221 39.9769 41.8074 39.9769 41.8074L39.9844 41.7759C40.035 41.5621 40.2493 41.4295 40.4631 41.4796C40.6499 41.5235 40.7745 41.6925 40.7696 41.8771C40.7696 41.8771 40.7639 42.1131 40.7381 42.5287C40.7297 42.7372 40.6791 42.987 40.6414 43.2771C40.5957 43.5659 40.5186 43.8906 40.4143 44.2389C40.3557 44.4119 40.2945 44.5924 40.2311 44.7792C40.1499 44.9597 40.0656 45.147 39.9791 45.339C39.8855 45.528 39.7733 45.7148 39.6659 45.91C39.5497 46.0994 39.4131 46.2822 39.2822 46.4734C38.9961 46.8371 38.6824 47.2022 38.3156 47.5203C37.9553 47.8459 37.5588 48.1378 37.144 48.3942C36.7265 48.6462 36.2936 48.8676 35.8553 49.0494C35.4196 49.2397 34.9738 49.3719 34.5453 49.4984C33.682 49.7304 32.8609 49.8497 32.1582 49.9012C31.4546 49.9526 30.8681 49.9322 30.4587 49.9132C30.0523 49.8888 29.8088 49.8502 29.8088 49.8502C29.6092 49.8187 29.4725 49.6315 29.504 49.4314C29.5324 49.2562 29.6828 49.1293 29.854 49.1222Z" fill="#845F3B"/>
<path d="M19.4992 52.3246C19.4992 52.3246 19.4606 52.329 19.395 52.3441C19.3337 52.3539 19.2149 52.3854 19.0951 52.3956C18.9718 52.4231 18.8263 52.4218 18.6666 52.4333C18.5077 52.4355 18.3325 52.4382 18.1529 52.4195C17.7962 52.3814 17.4413 52.2066 17.2807 51.9728C17.1068 51.7466 17.1458 51.511 17.1458 51.511C17.1649 51.3952 17.2709 51.3154 17.3863 51.3265L17.4151 51.3296C17.4151 51.3296 17.4706 51.3349 17.5389 51.3553C17.609 51.3744 17.695 51.4045 17.7784 51.4502C17.9457 51.5407 18.1156 51.7089 18.3414 51.8717C18.4541 51.9489 18.5796 52.0189 18.7074 52.054C18.8347 52.0904 18.9593 52.0957 19.0649 52.0944C19.1745 52.0846 19.2446 52.0744 19.3129 52.0491C19.3768 52.0283 19.4123 52.0123 19.4123 52.0123C19.4948 51.9746 19.5924 52.011 19.6301 52.0935C19.6678 52.176 19.6314 52.2736 19.5489 52.3113C19.5329 52.3179 19.5156 52.3224 19.4992 52.3246Z" fill="#FBBC2F"/>
<path d="M16.104 48.923C16.104 48.923 16.0202 48.8285 15.872 48.714C15.7926 48.663 15.7079 48.5943 15.6019 48.5388C15.4989 48.4794 15.3778 48.4297 15.2572 48.3791C15.0158 48.2788 14.7954 48.1533 14.6858 47.9927C14.5696 47.8401 14.574 47.64 14.574 47.64C14.5771 47.5163 14.6663 47.4147 14.7825 47.3912C14.7825 47.3912 14.9786 47.3517 15.1489 47.4395C15.3264 47.5194 15.4883 47.7146 15.6294 47.935C15.7003 48.0446 15.77 48.1555 15.8467 48.2465C15.9199 48.3414 16.0024 48.4128 16.0663 48.482C16.2047 48.608 16.3125 48.6741 16.3125 48.6741C16.3897 48.7216 16.4141 48.8227 16.3667 48.8999C16.3192 48.9771 16.218 49.0015 16.1409 48.954C16.1271 48.9456 16.1142 48.9345 16.104 48.923Z" fill="#FBBC2F"/>
<path d="M14.0868 50.8908C14.0868 50.8908 14.0567 50.8837 14.0043 50.8793C13.9555 50.8709 13.8615 50.8691 13.7683 50.854C13.6694 50.8527 13.5589 50.8269 13.4329 50.8163C13.3096 50.7981 13.1708 50.7848 13.0301 50.7573C12.7507 50.7023 12.4832 50.5519 12.3731 50.3594C12.2516 50.1731 12.3048 49.9708 12.3048 49.9708C12.3345 49.8576 12.4361 49.7831 12.5475 49.7822H12.5692C12.5692 49.7822 12.7582 49.7813 12.8895 49.8545C13.0288 49.9242 13.1455 50.0746 13.2959 50.2418C13.3713 50.3225 13.4564 50.4011 13.5483 50.4525C13.6392 50.5062 13.7341 50.5319 13.8149 50.555C13.9001 50.5692 13.9573 50.5776 14.0136 50.5732C14.0664 50.5719 14.097 50.5665 14.097 50.5665C14.1871 50.551 14.2727 50.6118 14.2882 50.7018C14.3038 50.7919 14.243 50.8775 14.1529 50.893C14.1307 50.8966 14.1077 50.8957 14.0868 50.8908Z" fill="#FBBC2F"/>
<path d="M11.0153 47.3242C11.0153 47.3242 10.9483 47.2244 10.821 47.0993C10.7513 47.0421 10.6794 46.9671 10.585 46.9032C10.4945 46.8353 10.384 46.7759 10.2749 46.7151C10.0557 46.5944 9.86098 46.4512 9.77802 46.2848C9.68753 46.1255 9.72123 45.9321 9.72123 45.9321C9.74252 45.8106 9.84234 45.7227 9.95901 45.7112C9.95901 45.7112 10.1542 45.6917 10.3064 45.7937C10.4661 45.8882 10.5947 46.0932 10.699 46.3203C10.7518 46.4334 10.8032 46.5479 10.864 46.6432C10.9208 46.7422 10.9904 46.8194 11.0423 46.893C11.1581 47.0287 11.2526 47.1028 11.2526 47.1028C11.324 47.1587 11.3364 47.2621 11.2801 47.3335C11.2242 47.4049 11.1208 47.4174 11.0494 47.361C11.0366 47.3508 11.0246 47.3375 11.0153 47.3242Z" fill="#FBBC2F"/>
<path d="M7.78572 48.121C7.78572 48.121 7.75867 48.1072 7.70942 48.0904C7.66551 48.0713 7.5728 48.046 7.48718 48.0074C7.39225 47.9808 7.29288 47.9267 7.17532 47.8814C7.0622 47.8295 6.93355 47.7763 6.80756 47.7071C6.55692 47.57 6.35019 47.3353 6.31337 47.1135C6.26324 46.8935 6.38834 46.7249 6.38834 46.7249C6.45577 46.6344 6.572 46.602 6.67314 46.6375L6.7042 46.6486C6.7042 46.6486 6.75167 46.665 6.80446 46.6956C6.85991 46.7254 6.92289 46.7666 6.97302 46.8207C7.07594 46.9268 7.13007 47.0975 7.21657 47.2967C7.26093 47.3934 7.31639 47.4915 7.38781 47.5642C7.45746 47.6392 7.53953 47.6884 7.60917 47.7301C7.68636 47.7652 7.73516 47.786 7.79106 47.7949C7.84207 47.806 7.87223 47.8078 7.87223 47.8078C7.96362 47.814 8.03282 47.8929 8.02661 47.9843C8.0204 48.0757 7.94144 48.1449 7.85006 48.1387C7.82699 48.1369 7.8048 48.1307 7.78572 48.121Z" fill="#FBBC2F"/>
<path d="M3.89022 42.9484C3.89022 42.9484 3.85738 42.822 3.77575 42.6467C3.7274 42.562 3.68215 42.4586 3.61162 42.3571C3.54596 42.2533 3.45947 42.1499 3.37385 42.0456C3.20217 41.8376 3.06065 41.6171 3.03403 41.4184C2.9981 41.2236 3.0926 41.044 3.0926 41.044C3.15027 40.9339 3.27758 40.8838 3.39203 40.9184C3.39203 40.9184 3.58589 40.977 3.6999 41.1393C3.82323 41.2977 3.8809 41.5532 3.9084 41.8216C3.9226 41.9556 3.93546 42.09 3.9634 42.2093C3.98647 42.3309 4.02863 42.4356 4.0548 42.5296C4.12223 42.7111 4.18965 42.8229 4.18965 42.8229C4.23623 42.9005 4.21094 43.0012 4.13331 43.0482C4.05567 43.0948 3.95498 43.0695 3.9084 42.9919C3.90041 42.9777 3.89421 42.963 3.89022 42.9484Z" fill="#FBBC2F"/>
<path d="M11.7978 43.0868C11.7978 43.0868 11.7477 43.0026 11.6461 42.9001C11.5893 42.8544 11.5321 42.7923 11.4531 42.7422C11.3777 42.6885 11.2841 42.6432 11.1914 42.5966C11.0051 42.5048 10.8436 42.3913 10.7868 42.2484C10.7225 42.1127 10.7753 41.937 10.7753 41.937C10.8103 41.8212 10.9066 41.7409 11.0179 41.7214C11.0179 41.7214 11.1985 41.6895 11.3262 41.7693C11.4615 41.8421 11.5551 42.016 11.6248 42.212C11.6598 42.3096 11.694 42.4081 11.7388 42.4889C11.7796 42.5736 11.8342 42.6375 11.8732 42.6991C11.9633 42.8122 12.0413 42.8717 12.0413 42.8717C12.1141 42.9271 12.1279 43.031 12.0724 43.1037C12.017 43.1765 11.9131 43.1902 11.8404 43.1348C11.8222 43.1206 11.8084 43.1041 11.7978 43.0868Z" fill="#FBBC2F"/>
<path d="M7.25911 40.8989C7.25911 40.8989 7.22806 40.7946 7.14954 40.654C7.10296 40.5875 7.05948 40.5041 6.99205 40.4255C6.92906 40.3448 6.84522 40.2667 6.76315 40.1878C6.59768 40.0307 6.4615 39.859 6.4371 39.6914C6.40338 39.5285 6.49565 39.3631 6.49565 39.3631C6.55509 39.2566 6.67265 39.2029 6.78666 39.2185C6.78666 39.2185 6.97431 39.2446 7.08388 39.3702C7.20277 39.4908 7.25733 39.7029 7.28306 39.9296C7.29637 40.0427 7.3079 40.1567 7.33452 40.2556C7.35626 40.3572 7.39663 40.4419 7.42148 40.5191C7.48624 40.6664 7.55056 40.7543 7.55056 40.7543C7.60424 40.8274 7.58872 40.9308 7.51553 40.9845C7.44233 41.0386 7.33896 41.0226 7.28528 40.9494C7.27286 40.9335 7.26444 40.9162 7.25911 40.8989Z" fill="#FBBC2F"/>
<path d="M3.93465 37.1219C3.93465 37.1219 3.93776 36.9919 3.90671 36.8012C3.8832 36.7067 3.86767 36.5949 3.82774 36.4782C3.79314 36.3607 3.73769 36.2378 3.68401 36.1145C3.57532 35.8683 3.49903 35.6181 3.52786 35.4198C3.54649 35.2228 3.68623 35.076 3.68623 35.076C3.77185 34.9859 3.9076 34.9722 4.00875 35.0369C4.00875 35.0369 4.17953 35.1461 4.24474 35.3328C4.32016 35.5183 4.3064 35.7795 4.25982 36.0448C4.2372 36.1775 4.21281 36.3101 4.20749 36.4325C4.1964 36.5554 4.20838 36.6677 4.20793 36.7648C4.22346 36.9578 4.25762 37.0833 4.25762 37.0833C4.28113 37.1707 4.22967 37.2608 4.14227 37.2847C4.05488 37.3087 3.96482 37.2568 3.94087 37.1694C3.93599 37.1534 3.93421 37.1374 3.93465 37.1219Z" fill="#FBBC2F"/>
<path d="M53.6716 43.3955C53.6716 43.3955 53.661 43.4231 53.6499 43.4723C53.6357 43.5167 53.621 43.6085 53.5935 43.695C53.5789 43.7895 53.5376 43.8911 53.5084 44.01C53.472 44.1253 53.4369 44.2557 53.3868 44.3861C53.287 44.6448 53.0896 44.8741 52.8806 44.9376C52.6757 45.0139 52.4947 44.9127 52.4947 44.9127C52.3949 44.8568 52.347 44.7446 52.3683 44.6381L52.3736 44.6115C52.3736 44.6115 52.4104 44.4301 52.4996 44.3245C52.587 44.21 52.7453 44.1373 52.9281 44.0312C53.0168 43.9776 53.1056 43.9132 53.1681 43.8365C53.2333 43.7611 53.271 43.6768 53.3043 43.6049C53.3296 43.5269 53.3447 43.4772 53.3473 43.4226C53.3526 43.3725 53.3513 43.3432 53.3513 43.3432C53.3473 43.2518 53.4179 43.1737 53.5097 43.1698C53.6015 43.1653 53.6791 43.2363 53.6831 43.3281C53.684 43.3512 53.6796 43.3747 53.6716 43.3955Z" fill="#FBBC2F"/>
<path d="M50.7573 43.947C50.7573 43.947 50.7147 44.0371 50.6552 44.1963C50.6348 44.2771 50.5927 44.3622 50.5638 44.4652C50.5288 44.5645 50.4995 44.6794 50.4587 44.7948C50.3788 45.0237 50.2249 45.2295 50.0484 45.2934C49.8771 45.3684 49.701 45.2854 49.701 45.2854C49.5977 45.237 49.5378 45.1337 49.5391 45.0263L49.5395 45.0037C49.5395 45.0037 49.5426 44.8236 49.6154 44.7158C49.685 44.5996 49.831 44.5268 50.0027 44.4363C50.0865 44.3906 50.1717 44.3374 50.2333 44.2726C50.2986 44.2101 50.338 44.1369 50.3762 44.0765C50.437 43.9554 50.4472 43.8485 50.4472 43.8485C50.456 43.7571 50.5368 43.6902 50.6282 43.699C50.7196 43.7075 50.7865 43.7886 50.7777 43.88C50.7759 43.8995 50.7706 43.9182 50.7626 43.935L50.7573 43.947Z" fill="#FBBC2F"/>
<path d="M50.6569 48.2567C50.6569 48.2567 50.5491 48.3219 50.4098 48.4475C50.3454 48.5167 50.2625 48.5872 50.1889 48.6817C50.1117 48.7722 50.0411 48.8822 49.9697 48.9918C49.8273 49.2114 49.6641 49.4052 49.4862 49.4842C49.3149 49.5712 49.1193 49.5303 49.1193 49.5303C48.9982 49.5051 48.9143 49.399 48.9121 49.2801C48.9121 49.2801 48.9086 49.0801 49.0257 48.9283C49.1362 48.7686 49.3575 48.6444 49.5997 48.5455C49.7204 48.4958 49.8419 48.447 49.9453 48.388C50.0518 48.333 50.1369 48.2647 50.2168 48.2146C50.3659 48.101 50.4501 48.0074 50.4501 48.0074C50.5109 47.94 50.6143 47.9342 50.6822 47.995C50.7496 48.0553 50.7553 48.1591 50.6946 48.227C50.683 48.2381 50.6702 48.2487 50.6569 48.2567Z" fill="#FBBC2F"/>
<path d="M46.9702 47.613C46.9702 47.613 46.9006 47.6551 46.8212 47.7434C46.7874 47.7935 46.7391 47.8432 46.704 47.9133C46.6654 47.9799 46.6366 48.0637 46.6073 48.1467C46.5488 48.313 46.4676 48.4563 46.346 48.5016C46.232 48.5543 46.0661 48.498 46.0661 48.498C45.9543 48.4598 45.8727 48.3702 45.839 48.266C45.839 48.266 45.7862 48.0992 45.8412 47.9856C45.8891 47.865 46.0337 47.7869 46.2019 47.7319C46.2853 47.7039 46.37 47.6773 46.437 47.64C46.508 47.6068 46.5585 47.5593 46.6095 47.5265C46.6996 47.4489 46.7431 47.3805 46.7431 47.3805C46.7923 47.3029 46.8952 47.2794 46.9733 47.3291C47.0509 47.3783 47.0744 47.4817 47.0248 47.5593C47.0106 47.5819 46.9911 47.6001 46.9702 47.613Z" fill="#FBBC2F"/>
<path d="M44.6723 52.2652C44.6723 52.2652 44.6528 52.2892 44.6257 52.3349C44.5969 52.3748 44.5521 52.4613 44.4953 52.538C44.4483 52.6268 44.3728 52.7137 44.3023 52.8211C44.226 52.9222 44.1453 53.0384 44.049 53.148C43.8578 53.3663 43.5806 53.5206 43.3525 53.5104C43.1232 53.514 42.9826 53.3556 42.9826 53.3556C42.9071 53.2713 42.9001 53.1493 42.9573 53.0584L42.9746 53.0313C42.9746 53.0313 43.0016 52.9883 43.0433 52.9431C43.085 52.8951 43.1405 52.8423 43.2053 52.8042C43.3343 52.7252 43.5171 52.7066 43.734 52.6614C43.8401 52.637 43.9492 52.6019 44.0375 52.546C44.1271 52.4923 44.1941 52.4209 44.2504 52.3601C44.3019 52.2909 44.3334 52.2461 44.3547 52.1925C44.3768 52.1441 44.3853 52.1144 44.3853 52.1144C44.411 52.0265 44.5028 51.976 44.5907 52.0017C44.6785 52.0274 44.7286 52.1193 44.7033 52.2071C44.6967 52.2288 44.6856 52.2488 44.6723 52.2652Z" fill="#FBBC2F"/>
<path d="M42.4187 50.6317C42.4187 50.6317 42.3242 50.6433 42.1934 50.6947C42.1308 50.7285 42.0536 50.7555 41.9787 50.8074C41.9019 50.8544 41.8256 50.9219 41.7493 50.9875C41.5963 51.1206 41.4335 51.2222 41.2835 51.2164C41.1371 51.2204 40.9992 51.1015 40.9992 51.1015C40.9082 51.023 40.8727 50.9032 40.8971 50.7932C40.8971 50.7932 40.9366 50.6153 41.0564 50.5315C41.1731 50.4374 41.3647 50.4219 41.5666 50.4374C41.6673 50.4445 41.7688 50.4534 41.8585 50.445C41.9498 50.4419 42.0279 50.4175 42.098 50.4073C42.2333 50.3704 42.3163 50.3234 42.3163 50.3234C42.3957 50.2782 42.4968 50.3061 42.5421 50.3855C42.5873 50.4649 42.5594 50.5661 42.48 50.6113C42.4609 50.6224 42.4396 50.6291 42.4187 50.6317Z" fill="#FBBC2F"/>
<path d="M38.2911 54.1683C38.2911 54.1683 38.1753 54.1736 38.0089 54.2166C37.9273 54.2463 37.8297 54.2685 37.7304 54.316C37.6297 54.3581 37.5258 54.4207 37.422 54.4823C37.2144 54.6061 37.0002 54.6979 36.8214 54.682C36.6448 54.6762 36.5006 54.5467 36.5006 54.5467C36.4093 54.4646 36.3858 54.3351 36.4337 54.229C36.4337 54.229 36.5131 54.0525 36.6723 53.9757C36.8294 53.8888 37.0627 53.8861 37.3027 53.915C37.4225 53.9291 37.5427 53.9447 37.6518 53.9425C37.7623 53.9456 37.8603 53.9265 37.9468 53.9203C38.1163 53.8923 38.2245 53.8506 38.2245 53.8506C38.3093 53.8178 38.4046 53.8599 38.4375 53.9447C38.4703 54.0294 38.4282 54.1248 38.3434 54.1576C38.3261 54.1638 38.3084 54.1674 38.2911 54.1683Z" fill="#FBBC2F"/>
<path d="M33.7874 52.8548C33.7874 52.8548 33.6743 52.8441 33.5071 52.8641C33.4241 52.8823 33.3265 52.8907 33.2232 52.924C33.1198 52.9519 33.0107 52.9998 32.9016 53.046C32.6833 53.14 32.4633 53.2012 32.2916 53.1608C32.1208 53.1307 31.9979 52.983 31.9979 52.983C31.9194 52.8889 31.9141 52.758 31.9748 52.6591C31.9748 52.6591 32.0755 52.495 32.2401 52.4413C32.4043 52.377 32.6309 52.4063 32.8603 52.4684C32.9747 52.499 33.0896 52.5309 33.1961 52.5438C33.303 52.562 33.4006 52.5566 33.4853 52.5629C33.6535 52.5584 33.7644 52.5318 33.7644 52.5318C33.8527 52.5105 33.9418 52.5651 33.9631 52.6534C33.9844 52.7416 33.9299 52.8308 33.8416 52.8521C33.8234 52.8552 33.8047 52.8565 33.7874 52.8548Z" fill="#FBBC2F"/>
<path d="M45.0383 43.9075C45.0383 43.9075 44.9625 43.9496 44.872 44.0397C44.8321 44.0907 44.7775 44.1413 44.7349 44.2131C44.6888 44.281 44.6515 44.3671 44.6129 44.4523C44.5371 44.623 44.4399 44.7694 44.3095 44.8142C44.1862 44.8666 44.0189 44.8054 44.0189 44.8054C43.9076 44.7646 43.8295 44.6692 43.8042 44.5618C43.8042 44.5618 43.7647 44.3884 43.8322 44.2726C43.8929 44.1488 44.0504 44.0707 44.2296 44.0171C44.3188 43.99 44.4089 43.9638 44.4821 43.9266C44.5588 43.8933 44.6156 43.8454 44.6715 43.8126C44.7722 43.734 44.8236 43.664 44.8236 43.664C44.8778 43.5899 44.982 43.5739 45.0561 43.628C45.1302 43.6821 45.1461 43.7864 45.092 43.8605C45.0769 43.88 45.0583 43.8964 45.0383 43.9075Z" fill="#FBBC2F"/>
<path d="M49.4704 38.2487C49.4704 38.2487 49.458 38.3764 49.4451 38.5894C49.4482 38.6941 49.4296 38.8129 49.4278 38.946C49.4185 39.0778 49.4167 39.2242 49.4029 39.3728C49.3754 39.6691 49.2632 39.9628 49.0889 40.1118C48.9229 40.2702 48.7105 40.2658 48.7105 40.2658C48.5902 40.2631 48.4922 40.1748 48.4736 40.0604L48.4713 40.0462C48.4713 40.0462 48.4394 39.8523 48.5015 39.6926C48.5578 39.5254 48.7038 39.3613 48.8608 39.1687C48.9371 39.0725 49.0103 38.9687 49.0556 38.8617C49.1044 38.7557 49.1243 38.6492 49.1443 38.5588C49.17 38.3817 49.1461 38.2478 49.1461 38.2478C49.1301 38.1582 49.19 38.0725 49.2792 38.057C49.3688 38.0411 49.4544 38.1009 49.4704 38.1906C49.473 38.2056 49.4735 38.2203 49.4721 38.2345L49.4704 38.2487Z" fill="#FBBC2F"/>
<path d="M54.7264 38.1462C54.7264 38.1462 54.6984 38.2402 54.6918 38.3844C54.6966 38.4572 54.69 38.5415 54.7069 38.6337C54.7184 38.7256 54.7485 38.8254 54.7774 38.9247C54.8364 39.1239 54.8626 39.32 54.796 39.458C54.7397 39.5973 54.5747 39.6775 54.5747 39.6775C54.466 39.7303 54.3418 39.7139 54.2517 39.6456C54.2517 39.6456 54.1058 39.5343 54.0778 39.3865C54.0397 39.2379 54.104 39.0507 54.2007 38.8671C54.2486 38.7752 54.2978 38.6834 54.3271 38.5956C54.3617 38.5086 54.3715 38.4248 54.3905 38.3542C54.4123 38.2114 54.4034 38.1138 54.4034 38.1138C54.395 38.0229 54.462 37.9421 54.5529 37.9337C54.6439 37.9253 54.7246 37.9923 54.733 38.0832C54.7344 38.1049 54.7321 38.1262 54.7264 38.1462Z" fill="#FBBC2F"/>
<path d="M52.228 34.4872C52.228 34.4872 52.2431 34.5964 52.3003 34.7494C52.3367 34.8235 52.3669 34.9136 52.4228 35.0027C52.4729 35.0937 52.5443 35.185 52.614 35.2769C52.7546 35.4601 52.8637 35.6535 52.8633 35.8247C52.8726 35.9929 52.7568 36.1437 52.7568 36.1437C52.6823 36.2404 52.5577 36.2759 52.4472 36.2426C52.4472 36.2426 52.2653 36.1867 52.1757 36.0443C52.0759 35.905 52.0533 35.6841 52.0617 35.4534C52.0652 35.3381 52.0706 35.2223 52.059 35.1194C52.0528 35.0147 52.0253 34.9233 52.012 34.8421C51.9699 34.6847 51.9193 34.5866 51.9193 34.5866C51.8776 34.5059 51.9091 34.4065 51.9898 34.3644C52.0706 34.3227 52.1699 34.3542 52.2121 34.4349C52.2196 34.4513 52.2254 34.4695 52.228 34.4872Z" fill="#FBBC2F"/>
<path d="M49.1608 29.7575C49.1608 29.7575 49.1817 29.769 49.2194 29.7823C49.2509 29.7974 49.3329 29.8187 49.3999 29.8511C49.478 29.8719 49.5561 29.9185 49.6523 29.9562C49.7437 30.0006 49.8506 30.0463 49.9544 30.1084C50.1612 30.2313 50.3186 30.4539 50.3098 30.6487C50.3146 30.8443 50.1554 30.9601 50.1554 30.9601C50.0724 31.0209 49.9669 31.0284 49.879 30.9903L49.8311 30.969C49.8311 30.969 49.7885 30.9504 49.7437 30.9242C49.6967 30.898 49.6452 30.8661 49.6111 30.8284C49.5392 30.7552 49.5374 30.6394 49.509 30.4797C49.4935 30.4029 49.4673 30.3213 49.4225 30.261C49.3795 30.1984 49.3214 30.1594 49.273 30.1257C49.2158 30.0986 49.1879 30.0844 49.1426 30.0791C49.1031 30.072 49.0792 30.072 49.0792 30.072C48.9865 30.0724 48.9106 29.9975 48.9102 29.9048C48.9097 29.812 48.9847 29.7362 49.0774 29.7357C49.1071 29.7353 49.136 29.7437 49.1608 29.7575Z" fill="#FBBC2F"/>
<path d="M46.7967 33.373C46.7967 33.373 46.8126 33.3929 46.8459 33.4222C46.8725 33.451 46.9426 33.5043 46.9967 33.5637C47.0651 33.6165 47.1249 33.6941 47.2043 33.7709C47.2771 33.8516 47.364 33.9395 47.4412 34.0415C47.5961 34.2433 47.6688 34.5193 47.5956 34.7096C47.5353 34.9052 47.3454 34.9718 47.3454 34.9718C47.2447 35.0072 47.1374 34.9793 47.0664 34.9092L47.0344 34.8777C47.0344 34.8777 47.0003 34.844 46.9675 34.8005C46.9324 34.7562 46.8951 34.7029 46.8761 34.6484C46.8339 34.5397 46.8694 34.4088 46.8929 34.2309C46.9022 34.1444 46.9031 34.0504 46.8783 33.9705C46.8561 33.8893 46.8117 33.825 46.7745 33.7704C46.727 33.719 46.7013 33.6906 46.6587 33.6657C46.6219 33.6414 46.5984 33.6311 46.5984 33.6311C46.5136 33.5939 46.4755 33.4954 46.5123 33.4111C46.5496 33.3264 46.6481 33.2882 46.7328 33.3251C46.759 33.3361 46.7803 33.353 46.7967 33.373Z" fill="#FBBC2F"/>
<path d="M7.01468 34.848C7.01468 34.848 7.00979 34.8076 6.99426 34.7398C6.98406 34.6768 6.95212 34.5503 6.94503 34.4248C6.91974 34.2948 6.92684 34.1427 6.92285 33.9754C6.92906 33.8095 6.93837 33.6267 6.97209 33.4413C7.03996 33.0727 7.2591 32.7173 7.52172 32.574C7.64682 32.4968 7.77504 32.4707 7.86731 32.4707C7.95958 32.4685 8.01547 32.4844 8.01547 32.4844C8.12859 32.5172 8.1947 32.6335 8.16586 32.7466L8.15832 32.7759C8.15832 32.7759 8.14412 32.8309 8.11396 32.8965C8.08468 32.9644 8.04254 33.0469 7.9862 33.1263C7.87485 33.2847 7.68808 33.4435 7.50664 33.6662C7.42058 33.7776 7.34206 33.9035 7.30036 34.034C7.25777 34.1639 7.24757 34.293 7.24713 34.4017C7.25467 34.5157 7.26444 34.5867 7.29017 34.6581C7.31146 34.7247 7.32832 34.7619 7.32832 34.7619C7.36514 34.8449 7.32831 34.942 7.24536 34.9789C7.1624 35.0157 7.06524 34.9789 7.02842 34.8959C7.02088 34.8804 7.01645 34.8635 7.01468 34.848Z" fill="#FBBC2F"/>
<path d="M42.0023 20.2149C42.0706 20.2473 42.1465 20.2877 42.2268 20.3378C42.2996 20.3857 42.3692 20.4372 42.4353 20.4926C42.5675 20.6035 42.6877 20.7286 42.7889 20.8684C42.988 21.1479 43.134 21.4739 43.1699 21.8257C43.1788 21.9135 43.1806 21.9898 43.1819 22.0892C43.1801 22.1775 43.1735 22.2653 43.1615 22.3527C43.1358 22.5275 43.087 22.6996 43.0164 22.8633C42.8727 23.188 42.6576 23.495 42.3532 23.719L42.3661 23.2413C42.7024 23.4533 42.941 23.7927 43.063 24.1662C43.1238 24.3543 43.1473 24.5544 43.1415 24.7562C43.138 24.8574 43.1225 24.9585 43.1003 25.0588C43.0723 25.1661 43.051 25.2406 42.9938 25.3693L42.9406 25.4767C42.9113 25.5263 42.8789 25.5742 42.847 25.6222C42.7853 25.7047 42.7179 25.781 42.6456 25.8519C42.4983 25.9904 42.3262 26.0964 42.1443 26.17C41.7827 26.3155 41.3582 26.3235 41.0237 26.1456C40.9417 26.1021 40.9106 26.0006 40.9545 25.9185C40.9811 25.8684 41.0295 25.8373 41.0818 25.8307L41.096 25.8289C41.387 25.7938 41.631 25.6967 41.8404 25.5583C41.8905 25.5201 41.9416 25.4873 41.9877 25.4469C42.0338 25.407 42.0733 25.3618 42.1155 25.3209C42.1549 25.2775 42.1904 25.2318 42.2228 25.1843C42.2335 25.1648 42.2441 25.1453 42.2578 25.1275L42.3137 25.0215C42.3204 25.0033 42.351 24.927 42.363 24.8795C42.3763 24.8237 42.3847 24.7669 42.3932 24.7083C42.4074 24.5912 42.3976 24.4692 42.3763 24.3485C42.3346 24.1054 42.2108 23.8739 42.0267 23.7102L41.9855 23.6734C41.8741 23.5744 41.8639 23.4036 41.9629 23.2923C41.985 23.2674 42.0117 23.247 42.0396 23.2324C42.2716 23.1109 42.4863 22.9166 42.6238 22.6699C42.6939 22.5479 42.7485 22.4153 42.7849 22.2777C42.8022 22.2085 42.8159 22.1389 42.8252 22.0679C42.8341 22.008 42.8341 21.9255 42.8314 21.8541C42.8141 21.5702 42.7192 21.2809 42.5453 21.0445C42.4597 20.926 42.3599 20.8165 42.2454 20.726C42.1873 20.6821 42.127 20.6417 42.0644 20.6049C42.0077 20.5734 41.9416 20.5405 41.8644 20.5086C41.7814 20.4744 41.7419 20.3791 41.7765 20.2961C41.8111 20.2132 41.9061 20.1741 41.989 20.2083C41.9912 20.2092 41.9935 20.2101 41.9957 20.2114L42.0023 20.2149Z" fill="#FBBC2F"/>
<path d="M38.3459 33.5743C38.4168 33.6058 38.5473 33.6945 38.6151 33.7771C38.6914 33.8644 38.7451 33.9647 38.7842 34.0681C38.8622 34.2743 38.876 34.497 38.8303 34.7095C38.8077 34.816 38.7655 34.9189 38.7127 35.017C38.6528 35.1194 38.5943 35.1886 38.5096 35.2729C38.3525 35.422 38.1604 35.5262 37.9604 35.5901C37.7612 35.6584 37.5522 35.6899 37.3429 35.6895C37.2422 35.6899 37.1242 35.6771 37.0345 35.6646C36.9259 35.6473 36.8287 35.6252 36.7293 35.599C36.3332 35.4969 35.9716 35.3266 35.6323 35.1616L36.0306 34.6984C36.1021 34.7849 36.1615 34.8794 36.2085 34.981C36.2516 35.0831 36.2826 35.1891 36.3012 35.2964C36.3345 35.5111 36.319 35.7281 36.2538 35.9304C36.189 36.1318 36.0861 36.3265 35.9304 36.4871C35.8519 36.5669 35.7631 36.6388 35.6647 36.7005L35.5081 36.7803L35.4247 36.8096L35.3825 36.8238L35.3612 36.8305L35.3506 36.8336L35.312 36.8424L35.1922 36.8602C35.1261 36.8651 35.0565 36.8668 34.9895 36.8659C34.8741 36.8562 34.7619 36.8367 34.6572 36.7985C34.45 36.72 34.2677 36.6015 34.1289 36.445C33.9869 36.2928 33.8844 36.1065 33.8321 35.9064C33.8095 35.8044 33.797 35.7019 33.801 35.599C33.8077 35.4952 33.8316 35.3958 33.8685 35.3035C33.9026 35.2188 33.9989 35.178 34.0832 35.2121C34.1377 35.2343 34.1746 35.2822 34.1843 35.3364L34.1883 35.3599C34.2353 35.6269 34.3928 35.8208 34.5822 35.9579C34.6798 36.0209 34.7801 36.0736 34.8808 36.0932C34.9309 36.1016 34.9771 36.1105 35.0236 36.1118C35.0369 36.1087 35.0485 36.1087 35.0627 36.1109L35.1816 36.0874C35.1261 36.0994 35.1665 36.0905 35.1541 36.0932L35.1545 36.0927L35.1554 36.0923L35.1572 36.0914L35.1612 36.0901L35.1687 36.0874L35.1838 36.0825L35.2148 36.0736C35.2344 36.063 35.2539 36.0532 35.2747 36.0448C35.3133 36.0204 35.351 35.992 35.3874 35.9579C35.4566 35.8869 35.5218 35.7968 35.5617 35.693C35.6003 35.5901 35.6265 35.4792 35.6239 35.3727C35.6216 35.3199 35.6136 35.2694 35.6017 35.2192C35.5861 35.1713 35.5657 35.1265 35.5404 35.0826L35.5085 35.0272C35.4242 34.8817 35.4739 34.6949 35.6199 34.6106C35.7228 34.5512 35.8457 34.5587 35.9388 34.619C36.2533 34.8244 36.5514 35.0258 36.8717 35.158C36.9516 35.1886 37.0359 35.2166 37.1113 35.237C37.2062 35.2601 37.275 35.2747 37.3619 35.2845C37.5278 35.3018 37.6977 35.2947 37.8597 35.2561C38.0203 35.213 38.1698 35.1398 38.2913 35.0351C38.3428 34.9908 38.4106 34.9185 38.4466 34.8586C38.4865 34.7934 38.518 34.7211 38.5344 34.643C38.5686 34.4886 38.5593 34.3205 38.5034 34.175C38.4723 34.104 38.4328 34.0383 38.3822 33.986C38.3219 33.9305 38.2975 33.9088 38.1964 33.8627C38.1147 33.8254 38.0788 33.7296 38.1161 33.648C38.1529 33.5668 38.2478 33.5308 38.3295 33.5668L38.3459 33.5743Z" fill="#FBBC2F"/>
<path d="M21.1524 36.9836C21.0934 37.0164 21.0228 37.051 20.9403 37.0843C20.8654 37.1122 20.7886 37.1349 20.7114 37.1522C20.5566 37.1872 20.3982 37.2041 20.2403 37.1956C19.9267 37.1779 19.6081 37.0892 19.3438 36.8958L19.2533 36.8252L19.157 36.7396C19.0984 36.6833 19.0439 36.6229 18.9928 36.559C18.8926 36.4304 18.8114 36.2867 18.7515 36.1332C18.6353 35.8271 18.5825 35.4811 18.6579 35.1346L19.1685 35.3861C18.9662 35.7046 18.6309 35.9145 18.2733 36.0019C18.0928 36.0453 17.9029 36.0507 17.7135 36.0249C17.6185 36.0112 17.5249 35.9855 17.4331 35.9526C17.3342 35.9123 17.2699 35.8848 17.151 35.8093L17.0627 35.7463C17.0197 35.7109 16.9784 35.6718 16.9385 35.6332C16.8715 35.5618 16.8116 35.4855 16.7593 35.4052C16.6577 35.2428 16.5942 35.0632 16.5654 34.8813C16.5383 34.699 16.5472 34.5131 16.5956 34.3383C16.6213 34.2509 16.6563 34.1675 16.698 34.089C16.7437 34.0114 16.7979 33.9404 16.8604 33.8792C16.9265 33.814 17.033 33.8148 17.0982 33.8809C17.1354 33.9191 17.1514 33.9701 17.1452 34.0194L17.1425 34.0402C17.1102 34.2979 17.1496 34.5206 17.2295 34.7203C17.253 34.7691 17.2716 34.817 17.2978 34.8622C17.324 34.907 17.3555 34.9461 17.3821 34.9878C17.4118 35.0268 17.4438 35.0623 17.4775 35.0951C17.4908 35.1049 17.5036 35.1142 17.5143 35.1275L17.6012 35.1923C17.6057 35.1932 17.67 35.2313 17.7055 35.2451C17.7494 35.2615 17.7955 35.2743 17.8426 35.2876C17.9384 35.3112 18.0422 35.3129 18.1464 35.3045C18.3563 35.289 18.5621 35.1958 18.7032 35.045L18.748 34.9975C18.8544 34.884 19.0323 34.8782 19.1459 34.9847C19.2333 35.0667 19.2564 35.1918 19.2138 35.2965C19.129 35.5037 19.1024 35.7579 19.1672 35.9974C19.1974 36.1172 19.2448 36.2339 19.3087 36.3417C19.3415 36.3949 19.377 36.4464 19.4165 36.4956L19.4746 36.5604L19.5505 36.6274C19.7448 36.7835 19.9959 36.8869 20.2558 36.8971C20.3854 36.9033 20.5162 36.894 20.6409 36.8611C20.703 36.8434 20.7633 36.8217 20.8219 36.7964C20.872 36.7733 20.9297 36.7427 20.9945 36.7019C21.0703 36.654 21.1706 36.6766 21.2185 36.7525C21.2664 36.8283 21.2438 36.9286 21.1675 36.9765C21.1652 36.9778 21.1626 36.9796 21.1604 36.9809L21.1524 36.9836Z" fill="#FBBC2F"/>
<path d="M13.341 20.4295L13.2235 20.4375L13.1321 20.4535C13.066 20.4699 13.0012 20.4912 12.9374 20.5183C12.8114 20.5755 12.6978 20.6616 12.6006 20.7614C12.4032 20.9606 12.2937 21.2391 12.299 21.5027L12.3074 21.6109L12.3269 21.6992C12.346 21.7631 12.37 21.8252 12.3988 21.885C12.4587 22.0044 12.5412 22.1122 12.6379 22.2022C12.8291 22.3868 13.0922 22.479 13.322 22.4662C13.4728 22.4578 13.6014 22.5731 13.6099 22.7239C13.6143 22.802 13.5855 22.8743 13.5353 22.9271L13.4923 22.9723C13.3251 23.1476 13.2261 23.388 13.2128 23.6316C13.2066 23.7527 13.2106 23.8729 13.2395 23.9856C13.255 24.0415 13.2714 24.0951 13.2914 24.1475C13.3087 24.1914 13.3504 24.2624 13.3575 24.2766L13.4284 24.3728C13.4448 24.387 13.4568 24.4039 13.4701 24.4208C13.5087 24.4611 13.55 24.4997 13.5952 24.5356C13.6427 24.5685 13.6888 24.6049 13.7403 24.6363C13.7922 24.667 13.8472 24.6909 13.9027 24.7184C14.1307 24.816 14.3853 24.8644 14.675 24.8382L14.691 24.8369C14.7832 24.8284 14.8644 24.8963 14.8728 24.9886C14.8782 25.0449 14.8538 25.0982 14.8134 25.1323C14.7411 25.1926 14.6608 25.2441 14.5734 25.2862C14.4856 25.3244 14.3937 25.3559 14.2984 25.3767C14.1076 25.4167 13.9084 25.4149 13.7141 25.3767C13.5212 25.3364 13.3308 25.2623 13.1609 25.1483C13.0771 25.0897 12.9972 25.0245 12.9223 24.9522C12.8823 24.9092 12.842 24.8661 12.8056 24.8204L12.7368 24.7224C12.6597 24.6004 12.6286 24.5294 12.5851 24.4256C12.5492 24.328 12.5208 24.2287 12.5044 24.128C12.4729 23.9266 12.472 23.7234 12.5124 23.5282C12.5922 23.1414 12.7976 22.7745 13.1201 22.5349L13.2905 23.0407C12.8899 22.995 12.5567 22.7736 12.3203 22.5012C12.2023 22.3624 12.1087 22.2045 12.0461 22.0345C12.016 21.9489 11.9933 21.8611 11.9778 21.7719L11.9614 21.6278L11.9587 21.5009C11.9681 21.1331 12.1451 20.8022 12.3837 20.5529C12.5053 20.4273 12.649 20.3253 12.8065 20.2472C12.8855 20.2086 12.968 20.1762 13.0536 20.1514L13.1929 20.1212L13.3096 20.1075C13.3987 20.0968 13.4794 20.1607 13.4897 20.2499C13.4999 20.339 13.4364 20.4198 13.3473 20.43C13.3464 20.4287 13.3433 20.4291 13.341 20.4295Z" fill="#FBBC2F"/>
<path d="M7.85129 21.5129C7.85129 21.5129 7.84375 21.5426 7.83798 21.5945C7.82867 21.6504 7.8331 21.705 7.84153 21.7901C7.85883 21.8704 7.87879 21.9654 7.92714 22.0572C7.97328 22.1499 8.04737 22.236 8.12455 22.3114C8.2847 22.4627 8.42887 22.5749 8.49497 22.7102C8.52913 22.7767 8.54688 22.8513 8.55576 22.9138C8.56596 22.9746 8.56507 23.0247 8.56507 23.0247L8.56462 23.0558C8.56285 23.1689 8.48566 23.2634 8.38186 23.2927C8.38186 23.2927 8.17957 23.3499 7.99103 23.2266C7.79584 23.1152 7.64634 22.8415 7.60065 22.5589C7.57758 22.417 7.57004 22.2777 7.55762 22.153C7.55319 22.0266 7.5341 21.9148 7.53943 21.8159C7.53055 21.7223 7.53587 21.6264 7.53144 21.5781C7.531 21.5257 7.52657 21.4956 7.52657 21.4956C7.51281 21.4051 7.57491 21.3203 7.66541 21.3066C7.75591 21.2928 7.84064 21.3549 7.85439 21.4454C7.85794 21.4694 7.85661 21.492 7.85129 21.5129Z" fill="#FBBC2F"/>
</svg>
