<svg width="365" height="392" viewBox="0 0 365 392" fill="none" xmlns="http://www.w3.org/2000/svg">
<path d="M193.219 362.084L189.193 361.083C189.514 360.493 221.356 301.448 241.57 260.777C257.592 228.542 269.416 190.952 277.72 145.862L281.973 146.223C273.634 191.508 261.746 229.284 245.634 261.705C225.399 302.414 193.536 361.491 193.219 362.084Z" fill="#244C3D"/>
<path d="M243.595 261.24C243.595 261.24 284.564 257.384 294.939 241.411C307.831 218.131 302.806 203.03 304.958 171.37C307.11 139.708 298.857 113.894 291.32 95.8715C283.783 77.8493 279.466 73.9533 274.446 88.8098C269.43 103.666 270.506 115.843 259.736 133.624C248.971 151.402 246.099 164.797 243.586 178.438C241.074 192.075 236.77 201.331 233.181 212.536C229.597 223.735 225.653 249.552 243.595 261.24Z" fill="#3C7760"/>
<path d="M294.94 241.413C307.832 218.134 302.807 203.033 304.959 171.373C307.112 139.711 298.859 113.896 291.322 95.8743C287.24 86.1096 284.102 80.5027 281.285 79.7666C281.521 81.7539 285.409 115.794 279.84 146.045C274.1 177.219 264.05 220.083 243.596 261.242C243.596 261.242 284.561 257.384 294.94 241.413Z" fill="#244C3D"/>
<path d="M200.89 295.053C200.89 295.053 216.757 296.088 224.577 289.737C232.397 283.388 251.492 263.189 274.819 264.408C298.146 265.628 318.241 292.256 334.391 292.457C350.541 292.661 360.946 303.045 364.534 295.053C368.123 287.057 351.317 233.351 302.661 220.627C254.005 207.904 225.838 217.404 209.062 231.041C192.281 244.681 181.876 257.099 174.339 276.827C177.923 289.737 200.89 295.053 200.89 295.053Z" fill="#244C3D"/>
<path d="M353.071 296.469C354.91 297.078 356.556 297.587 358.01 297.857L357.658 296.915C347.395 268.269 325.071 245.577 297.937 236.217C281.508 230.549 260.677 230.654 242.216 236.505C223.742 242.359 199.27 256.529 187.618 290.799C169.843 342.916 175.082 365.515 175.313 366.452L179.54 365.969C179.485 365.745 174.211 343.009 191.793 291.453C203.06 258.324 226.417 244.719 244.029 239.138C261.307 233.665 280.732 233.54 295.995 238.809C321.667 247.669 342.919 269.171 353.071 296.469Z" fill="#3C7760"/>
<path d="M109.573 273.957C109.162 273.311 108.797 272.738 108.48 272.238C102.122 262.106 95.8198 258.336 85.9977 258.813C85.5947 258.822 83.4597 258.9 80.4586 259.438C73.4575 260.463 70.0148 262.575 63.4424 265.502C54.8293 269.337 27.3781 286.509 15.8025 296.92C4.23126 307.331 -5.99805 316.647 5.57323 323.406C17.1445 330.165 47.8284 323.04 59.1338 315.187C70.4393 307.334 76.6301 304.409 76.6301 304.409C76.6301 304.409 79.0524 289.614 73.9377 274.819C82.5508 284.499 88.2014 300.391 88.2014 300.391C88.2014 300.391 90.8937 299.294 98.6965 297.467C106.504 295.64 104.347 287.967 98.6965 274.816C95.9355 268.391 93.3717 264.428 91.4639 262.048C95.884 262.991 99.8755 265.962 104.527 273.375C104.844 273.882 105.213 274.461 105.629 275.112C113.282 287.097 136.57 323.566 130.739 369.308L135.01 369.559C140.943 323.086 117.333 286.111 109.573 273.957Z" fill="#3C7760"/>
<path d="M204.795 63.1642C204.118 44.4816 186.891 17.2039 182.587 7.21809C178.283 -2.76772 162.06 -2.03741 150.072 7.21809C138.085 16.4736 132.705 34.9817 135.217 47.1613C137.729 59.3381 134.613 81.9895 134.613 81.9895C134.613 81.9895 148.25 83.6945 157.524 84.9137C144.546 88.3237 132.345 88.3237 132.345 88.3237C132.345 88.3237 135.29 98.5539 133.815 114.627C132.345 130.699 131.736 166.008 157.7 166.741C183.663 167.474 204.795 63.1642 204.795 63.1642Z" fill="#244C3D"/>
<path d="M181.435 366.288C181.367 365.41 174.58 277.641 185.843 208.232C189.898 183.241 190.143 181.746 194.096 148.605L198.37 148.841C194.409 182.025 194.164 183.524 190.104 208.552C178.876 277.728 185.645 365.258 185.714 366.134L181.435 366.288Z" fill="#244C3D"/>
<path d="M150.991 369.573L146.721 369.303C150.717 340.113 143.891 311.035 138.905 289.803C137.654 284.464 136.47 279.424 135.604 275.008C135.21 272.994 134.837 271.068 134.477 269.197C130.837 250.392 128.436 237.971 117.705 207.51L121.876 206.835C132.659 237.444 135.077 249.927 138.73 268.822C139.09 270.69 139.463 272.619 139.857 274.629C140.715 279.008 141.894 284.03 143.141 289.349C148.162 310.729 155.034 340.017 150.991 369.573Z" fill="#244C3D"/>
<path d="M56.4517 269.157C44.6618 275.826 25.1076 288.553 15.8086 296.921C5.58349 306.121 -3.58268 314.466 2.40661 320.945C19.0411 311.533 35.7314 284.319 56.4517 269.157Z" fill="#244C3D"/>
<path d="M137.73 274.818C137.73 274.818 144.461 245.411 153.88 235.728C152.804 189.697 147.419 184.766 137.73 165.222C128.041 145.678 118.888 117.181 110.545 105.31C102.202 93.4356 84.9757 76.6325 70.1718 63.6643C55.3679 50.6962 37.0658 46.3114 38.1419 59.8295C39.218 73.3476 46.4848 92.5248 52.1354 111.158C57.7859 129.788 60.4784 145.864 64.2469 155.361C68.0154 164.861 82.5491 179.837 83.3551 193.538C84.1611 207.237 95.9811 228.061 95.9811 228.061C95.9811 228.061 107.038 230.071 114.575 232.629C104.616 235.186 95.9811 237.014 95.9811 237.014C95.9811 237.014 98.6949 242.859 105.962 249.435C113.229 256.011 114.575 269.165 114.575 269.165C114.575 269.165 128.041 273.538 137.73 274.818Z" fill="#3C7760"/>
<path d="M82.1071 127.045C68.6537 101.815 50.6645 71.3778 41.5712 52.3547C39.1704 53.4866 37.837 55.8928 38.15 59.8266C39.2261 73.3447 46.493 92.522 52.1436 111.155C57.7942 129.786 60.4865 145.861 64.255 155.358C68.0235 164.858 82.5572 179.834 83.3632 193.535C84.1692 207.234 95.9892 228.058 95.9892 228.058C95.9892 228.058 107.046 230.068 114.583 232.626C104.624 235.184 95.9892 237.011 95.9892 237.011C95.9892 237.011 98.703 242.856 105.97 249.432C113.237 256.008 114.583 269.162 114.583 269.162C114.583 269.162 128.041 273.544 137.73 274.824C133.425 252.845 131.629 240.788 119.788 207.179C107.946 173.564 95.7448 152.617 82.1071 127.045Z" fill="#244C3D"/>
<path d="M187.974 208.389C187.974 208.389 203.764 192.072 233.907 188.418C236.42 172.831 229.959 161.384 232.471 142.387C234.984 123.39 237.136 108.534 230.675 87.1017C224.214 65.6694 223.858 57.3886 218.834 56.4139C213.809 55.4391 199.815 63.9643 193.354 78.5764C186.893 93.1885 179.001 104.393 170.748 119.98C162.495 135.567 156.034 161.87 157.83 177.215C167.515 195.482 187.974 208.389 187.974 208.389Z" fill="#3C7760"/>
<path d="M171.782 0.121582C164.403 16.1303 164.459 36.2939 164.523 54.1445C164.545 60.3478 164.566 66.2077 164.3 71.7098C163.79 82.231 164.558 97.9546 165.372 114.603C166.273 133.018 167.203 152.059 166.435 165.222C165.745 177.047 167.1 191.688 168.536 207.19C170.105 224.154 171.73 241.696 170.405 255.054C169.689 262.252 167.854 271.141 165.732 281.429C160.382 307.337 153.724 339.578 159.653 369.632L163.902 369.245C158.05 339.59 164.665 307.564 169.977 281.834C172.112 271.49 173.955 262.555 174.684 255.249C176.026 241.701 174.393 224.066 172.815 207.01C171.387 191.586 170.037 177.015 170.723 165.341C171.499 152.071 170.564 132.975 169.664 114.51C168.853 97.911 168.086 82.2339 168.592 71.8088C168.862 66.2543 168.841 60.371 168.819 54.1386C168.755 36.518 168.703 16.6162 175.859 1.04389C174.59 0.578352 173.226 0.272882 171.782 0.121582Z" fill="#3C7760"/>
<path d="M233.909 188.42C236.421 172.834 229.961 161.387 232.473 142.39C234.985 123.393 237.137 108.537 230.676 87.1046C225.485 69.8768 224.233 61.1537 221.33 57.8833C212.73 81.9895 200.186 115.599 196.233 148.722C192.28 181.845 190.844 183.061 187.971 208.392C187.971 208.392 203.765 192.072 233.909 188.42Z" fill="#244C3D"/>
<path d="M294.916 190.367C294.916 190.367 278.41 202.058 264.052 215.21C249.694 228.361 237.853 234.451 222.783 241.027C207.714 247.602 202.016 265.357 185.819 269.16C188.691 284.866 206.273 292.457 206.273 292.457C206.273 292.457 217.313 277.071 234.938 264.164C252.567 251.257 261.18 234.206 278.762 220.08C296.348 205.954 294.916 190.367 294.916 190.367Z" fill="#3C7760"/>
<path d="M183.678 368.433C182.25 323.095 204.677 287.347 204.904 286.992L208.84 288.148C208.617 288.497 186.559 323.697 187.965 368.372L183.678 368.433Z" fill="#3C7760"/>
<path d="M209.865 307.069C209.865 307.069 190.126 297.572 177.925 292.457C166.443 310.723 167.875 322.414 167.875 322.414C167.875 322.414 184.381 321.928 193.354 325.58C182.589 330.206 167.82 328.83 167.82 328.83C167.82 328.83 164.647 335.565 171.824 346.282C179.001 356.998 165.363 369.905 184.025 391.581C219.554 384.52 237.856 363.818 243.237 351.152C226.371 339.461 213.449 336.051 213.449 336.051C213.449 336.051 244.669 340.678 250.414 338.731C252.926 309.748 246.465 295.177 246.465 295.177C246.465 295.177 232.827 291.482 223.858 299.032C214.889 306.583 209.865 307.069 209.865 307.069Z" fill="#3C7760"/>
</svg>
