<svg width="412" height="277" viewBox="0 0 412 277" fill="none" xmlns="http://www.w3.org/2000/svg">
<path d="M249.669 17.23C256.79 18.2563 263.569 23.625 264.42 30.6758C264.446 30.8783 264.462 31.0969 264.366 31.2787C264.161 31.6722 263.599 31.6676 263.153 31.6055C255.638 30.5654 248.122 29.5252 240.604 28.4851C236.847 27.965 226.401 26.2437 232.522 20.9096C236.604 17.3566 244.518 16.489 249.669 17.23Z" fill="#705158"/>
<path d="M90.6558 11.5761C92.8274 11.4979 94.999 11.4703 97.173 11.4956C107.42 11.613 117.613 12.8832 127.781 14.1511C128.873 14.2869 123.685 5.30542 122.738 4.54143C119.85 2.21033 115.169 0.284266 111.402 0.0311367C103.634 -0.493532 94.999 5.70584 90.6558 11.5761Z" fill="#705158"/>
<path d="M151.301 56.3455C149.452 37.5794 139.736 19.0366 123.404 9.24504C119.912 7.15097 114.283 6.07169 112.646 9.76738C112.002 11.2194 112.329 12.8924 112.651 14.4457C115.599 28.6831 117.246 43.5856 113.514 57.6412C108.333 77.146 93.3928 92.9458 87.615 112.287C85.7279 118.602 84.8906 125.514 87.1998 131.688C90.1598 139.595 98.2772 145.155 106.793 145.811C115.31 146.469 123.896 142.513 129.431 136.093C137.206 127.077 139.258 113.822 143.324 102.88C148.91 87.851 152.892 72.4906 151.301 56.3455Z" fill="#705158"/>
<path d="M233.419 24.2534C237.09 22.7852 241.389 21.5793 244.872 23.4433C248.38 25.3211 249.728 29.8107 249.115 33.702C248.499 37.5933 246.344 41.0519 244.296 44.4324C235.362 59.1898 227.692 74.6883 221.394 90.7137C217.944 99.4904 214.865 108.504 209.792 116.478C204.719 124.451 197.294 131.44 188.057 133.803C178.62 136.217 167.967 133.226 161.233 126.272C142.53 106.96 165.592 85.1817 177.936 69.5797C192.825 50.7606 210.646 33.3591 233.419 24.2534Z" fill="#705158"/>
<path d="M122.724 276.734C88.0855 275.167 52.0705 265.493 33.3913 241.929C21.7214 227.21 18.1059 208.55 19.2628 190.325C20.4198 172.099 26.0343 154.058 31.6185 136.171C36.1997 121.501 40.7785 106.829 45.3597 92.1586C45.8099 90.7135 46.3161 89.1878 47.5966 88.1085C49.1758 86.7784 51.527 86.454 53.694 86.2285C125.036 78.8164 195.251 98.2245 254.174 128.731C265.102 134.39 275.846 140.516 284.276 148.588C302.228 165.78 312.433 202.636 295.146 224.686C276.171 248.892 223.818 264.1 192.849 270.737C169.786 275.682 146.045 277.79 122.724 276.734Z" fill="#86666D"/>
<path d="M300.582 175.698C297.111 165.032 291.291 155.305 284.275 148.588C275.845 140.516 265.104 134.39 254.173 128.731C198.879 100.102 133.637 81.2512 66.8531 85.1632C62.7757 89.1281 59.3912 93.8225 56.4055 98.6688C48.7499 111.097 43.1751 125.438 44.528 139.92C44.9875 144.847 46.2774 149.767 48.8712 154.003C50.9682 157.427 53.8653 160.322 57.0586 162.787C77.2634 178.368 105.686 175.528 131.302 174.286C169.293 172.44 208.28 176.046 244.001 189.57C255.72 194.007 273.347 207.443 286.393 201.676C296.528 197.196 300.09 186.463 300.582 175.698Z" fill="#B7989E"/>
<path d="M405.417 54.355C274.371 29.9464 136.061 -7.91261 4.74342 15.0324C1.07194 21.455 -0.861761 32.7746 3.32522 38.8819C43.1796 31.9738 91.2424 41.1992 131.696 42.0736C155.428 42.5868 179.01 45.7854 202.485 49.2579C271.485 59.4614 340.096 72.0557 408.69 84.6478C414.178 76.138 411.47 62.4828 405.417 54.355Z" fill="#89634B"/>
<path d="M343.181 122.974C332.241 117.242 320.035 118.337 308.521 115.136C303.11 113.631 297.761 111.16 292.261 111.148C284.783 111.132 277.808 115.76 272.478 122.086C257.338 140.056 254.856 170.256 260.638 196.129C263.96 210.983 270.034 225.634 280.076 234.779C290.81 244.557 305.54 246.729 317.325 240.277C323.49 236.901 328.733 231.452 334.623 227.411C341.387 222.772 349.017 219.983 355.21 214.262C379.224 192.088 370.848 137.471 343.181 122.974Z" fill="#86666D"/>
<path d="M318.409 229.443C326.123 223.324 331.488 214.349 333.778 204.956C334.744 200.998 335.236 196.846 337.333 193.275C338.826 190.73 341.172 188.574 343.927 187.683C350.207 185.649 356.416 191.068 357.256 197.429C357.33 197.992 357.363 198.558 357.377 199.127C361.68 189.812 364.286 178.895 362.306 167.366C360.773 158.453 355.613 150.636 349.397 144.451C344.433 139.51 338.196 136.058 331.865 132.959C337.13 137.027 341.693 141.77 343.827 148.577C346.313 156.495 343.531 167.667 333.319 169.027C332.061 169.195 330.797 169.159 329.58 168.947C323.762 167.937 319.636 164.009 315.957 159.896C308.225 151.255 300.966 140.806 289.399 138.369C288.599 138.201 287.789 138.079 286.97 138.001C278.002 137.158 269.175 143.489 266.63 152.496C266.619 152.533 266.609 152.572 266.598 152.609C264.05 161.707 264.078 171.128 264.799 180.28C265.977 195.259 269.154 210.4 277.761 222.072C279.338 224.21 281.132 226.209 283.098 228.025C292.806 236.99 307.835 237.738 318.246 229.574C318.299 229.53 318.355 229.486 318.409 229.443Z" fill="#B7989E"/>
<path d="M332.059 158.833C328.542 159.406 325.468 157.025 325.197 153.511C324.924 149.999 327.557 146.685 331.075 146.112C334.593 145.539 337.667 147.921 337.937 151.435C338.21 154.947 335.579 158.26 332.059 158.833Z" fill="#404041"/>
<path d="M344.255 205.851C340.737 206.424 337.663 204.042 337.39 200.529C337.117 197.017 339.751 193.703 343.268 193.13C346.786 192.557 349.86 194.939 350.131 198.453C350.406 201.964 347.772 205.278 344.255 205.851Z" fill="#404041"/>
<path d="M319.501 207.713C314.169 209.864 307.631 204.571 304.899 195.889C302.168 187.207 304.276 178.423 309.609 176.269C314.941 174.118 321.479 179.41 324.211 188.093C326.942 196.775 324.833 205.561 319.501 207.713Z" fill="#404041"/>
<path d="M316.016 192.329C313.968 193.155 311.455 191.123 310.406 187.787C309.356 184.452 310.166 181.076 312.216 180.25C314.264 179.424 316.776 181.456 317.826 184.793C318.875 188.129 318.064 191.503 316.016 192.329Z" fill="#69696C"/>
<path d="M298.911 206.983C299.543 207.954 300.101 209.482 299.074 210.198C298.533 210.575 297.833 210.456 297.248 210.262C293.031 208.866 290.495 204.76 288.687 200.701C284.941 192.279 283.031 182.911 283.119 173.384C283.152 169.937 283.868 165.783 286.994 164.103C289.772 162.612 289.527 171.154 289.471 171.87C289.147 175.945 289.473 180.02 290.117 183.988C291.461 192.265 294.451 200.14 298.911 206.983Z" fill="#98737B"/>
<path d="M322.831 51.4762C331.438 46.7795 339.07 43.8294 353.588 44.8373C342.422 33.5362 321.94 29.6173 307.578 36.5668C305.838 37.4091 304.123 38.4124 302.892 39.8897C301.66 41.3671 300.974 43.399 301.52 45.2354C302.033 46.9613 303.517 48.2338 305.059 49.1957C310.755 52.7557 316.929 54.6955 322.831 51.4762Z" fill="#404041"/>
<path d="M250.523 137.349C249.854 127.118 248.501 116.155 253.583 107.215C257.509 100.309 264.624 95.8659 271.397 91.6202C290.27 79.7898 308.7 67.2714 326.633 54.0995C330.969 50.9146 335.798 45.8797 333.512 41.0472C332.59 39.1027 330.68 37.8071 328.746 36.8222C316.094 30.3697 300.737 33.6006 287.184 37.9222C258.309 47.1338 230.867 60.7038 206.109 78.0179C202.418 80.5975 198.698 83.3544 196.302 87.1398C193.797 91.0978 192.96 95.8336 192.169 100.434C187.609 127.042 183.032 153.842 183.588 180.823C183.804 191.356 184.859 202.088 189.137 211.742C193.415 221.395 201.359 229.914 211.632 232.788C232.133 238.521 240.943 221.678 243.7 205.011C247.46 182.268 252.044 160.603 250.523 137.349Z" fill="#86666D"/>
<path d="M61.4124 14.7563C55.0724 7.56739 46.036 2.42196 36.3908 1.9226C26.7456 1.42325 16.6899 6.05551 11.9314 14.349C17.2124 13.4998 23.1488 14.7862 27.443 17.9342C31.9892 21.2663 35.0892 26.4762 40.1906 28.9063C44.5805 30.9957 50.0924 30.5723 54.0997 27.8362C58.1071 25.1001 61.8486 19.5427 61.4124 14.7563Z" fill="#404041"/>
<path d="M120.042 108.925C119.317 95.7325 115.757 82.7953 110.67 70.5714C100.49 46.1145 83.36 23.6365 59.5747 11.4541C54.5643 8.88828 49.0851 6.7574 43.4472 7.05195C37.8094 7.3465 32.0176 10.6141 30.3172 15.9253C28.7847 20.7094 30.7627 25.8319 32.7547 30.4503C37.5831 41.6364 42.7288 52.9006 44.3779 64.9473C47.2073 85.6004 39.5495 106.039 33.4498 125.991C27.3501 145.944 22.8552 168.095 31.5254 187.101C37.7744 200.8 50.8135 211.286 65.6744 214.565C90.2107 219.98 99.4641 204.525 102.919 184.694C107.481 158.479 121.57 136.687 120.042 108.925Z" fill="#86666D"/>
<path d="M95.7119 5.6044C93.0178 7.61793 90.8998 10.6601 90.8555 13.9945C92.1011 13.0763 93.3467 12.1582 94.5946 11.24C93.7595 12.5194 93.5449 14.1739 94.0278 15.6168C98.5693 10.5818 105.373 7.61332 112.203 7.68696C112.658 7.69156 113.136 7.70309 113.537 7.49138C114.678 6.88847 114.275 5.14642 113.477 4.14081C108.893 -1.63515 100.498 2.02376 95.7119 5.6044Z" fill="#404041"/>
<path d="M266.808 36.6772C265.878 35.6831 264.949 34.689 264.019 33.6949C264.203 34.8915 264.189 36.118 263.977 37.31C260.375 31.2671 254.329 26.6855 247.481 24.8169C245.783 24.3544 244.017 24.0414 242.463 23.2222C242.023 22.9898 241.547 22.6101 241.603 22.12C241.654 21.6827 242.102 21.4158 242.508 21.2317C253.618 16.2105 267.009 24.5569 266.808 36.6772Z" fill="#404041"/>
<path d="M218.295 246.635C217.828 246.729 217.31 246.858 217.065 247.261C216.61 248.006 217.478 248.869 218.29 249.214C220.445 250.13 222.878 250.091 225.22 249.962C231.917 249.594 239.073 248.381 243.86 243.745C244.291 243.326 244.73 242.799 244.66 242.205C244.583 241.554 243.93 241.133 243.311 240.898C239.694 239.533 235.871 241.855 232.505 242.932C227.839 244.419 223.095 245.657 218.295 246.635Z" fill="#6E5359"/>
<path d="M176.865 258.711C176.184 258.914 175.355 259.56 175.764 260.133C175.906 260.331 176.156 260.419 176.391 260.492C182.925 262.538 190.055 262.683 196.668 260.909C199.481 260.154 202.329 258.964 204.123 256.698C204.324 256.444 204.517 256.138 204.45 255.825C204.347 255.354 203.752 255.2 203.267 255.151C198.924 254.723 195.441 256.076 191.25 256.709C186.463 257.429 181.537 257.319 176.865 258.711Z" fill="#6E5359"/>
<path d="M216.895 240.532C218.395 239.68 219.886 238.429 220.082 236.733C217.945 236.569 215.839 237.184 213.763 237.713C208.906 238.953 203.933 239.756 198.928 240.109C197.057 240.24 195.161 240.313 193.371 240.868C190.125 241.876 195.279 243.21 196.15 243.367C198.118 243.721 200.052 243.744 202.051 243.705C207.136 243.609 212.408 243.084 216.895 240.532Z" fill="#6E5359"/>
<path d="M140.783 258.166C140.155 258.29 139.42 258.53 139.26 259.142C139.031 260.018 140.153 260.596 141.044 260.808C146.334 262.06 151.778 262.883 157.206 262.536C162.634 262.188 168.069 260.614 172.447 257.43C175.228 255.407 170.01 254.512 168.578 254.76C166.11 255.186 163.878 256.1 161.312 256.357C154.475 257.038 147.543 256.817 140.783 258.166Z" fill="#6E5359"/>
<path d="M161.752 248.441C160.509 248.128 158.997 247.297 159.263 246.059C159.403 245.401 160.033 244.955 160.667 244.704C162.652 243.915 164.889 244.419 166.991 244.81C173.529 246.025 180.293 246.034 186.834 244.84C179.743 249.269 169.792 250.471 161.752 248.441Z" fill="#6E5359"/>
<path d="M119.316 248.786C116.909 248.607 114.347 248.611 112.26 249.806C111.709 250.121 111.152 250.613 111.17 251.242C111.194 252.105 112.218 252.54 113.067 252.749C118.912 254.192 124.956 254.843 130.979 254.684C133.183 254.624 135.501 254.42 137.316 253.184C137.657 252.954 138.002 252.512 137.755 252.185C137.631 252.019 137.405 251.973 137.2 251.939C131.363 250.943 125.268 248.786 119.316 248.786Z" fill="#6E5359"/>
<path d="M156.836 242.009C157.676 241.738 158.56 241.402 159.073 240.693C158.448 239.925 157.303 239.86 156.304 239.883C149.717 240.028 143.092 241.073 136.573 240.12C134.597 239.832 132.514 239.372 130.66 240.104C130.31 240.668 131.066 241.262 131.688 241.505C139.542 244.598 148.812 244.61 156.836 242.009Z" fill="#6E5359"/>
<path d="M191.238 233.184C192.316 232.678 193.424 232.002 193.858 230.904C193.927 230.729 193.976 230.536 193.939 230.352C193.799 229.682 192.82 229.733 192.157 229.93C187.781 231.249 183.163 231.778 178.598 231.484C176.967 231.378 175.297 231.175 173.73 231.624C173.214 231.771 172.624 232.16 172.743 232.676C172.829 233.046 173.242 233.233 173.604 233.364C179.281 235.442 185.612 236.312 191.238 233.184Z" fill="#6E5359"/>
<path d="M90.4054 252.026C89.2858 251.819 88.1055 251.644 87.0325 252.022C85.9596 252.399 85.0708 253.517 85.3601 254.604C85.6167 255.572 86.6407 256.113 87.5737 256.507C93.2255 258.884 99.3975 260.05 105.542 259.901C107.289 259.859 109.176 259.652 110.466 258.488C110.277 257.538 109.192 257.091 108.257 256.799C102.43 254.981 96.4118 253.156 90.4054 252.026Z" fill="#6E5359"/>
<path d="M77.7372 238.408C76.1044 238.042 74.2454 237.718 72.8715 238.661C72.4236 238.967 72.0504 239.432 72.0084 239.966C71.9151 241.135 73.2867 241.821 74.4203 242.177C78.353 243.418 82.3068 244.663 86.3934 245.24C90.4801 245.818 94.7417 245.7 98.6068 244.271C97.5525 241.74 92.724 241.83 90.3588 241.227C86.1882 240.164 81.9382 239.347 77.7372 238.408Z" fill="#6E5359"/>
<path d="M106.779 240.316C110.337 241.116 114.283 241.413 117.435 239.604C117.815 239.386 118.211 239.087 118.265 238.656C118.34 238.063 117.728 237.619 117.171 237.382C115.508 236.673 113.66 236.544 111.857 236.394C107.16 236.003 102.431 235.393 98.0182 233.766C96.7679 233.304 95.5387 232.761 94.2277 232.503C94.0505 232.468 93.8545 232.441 93.6959 232.531C93.5256 232.627 93.4533 232.832 93.4183 233.025C92.5879 237.584 103.931 239.676 106.779 240.316Z" fill="#6E5359"/>
</svg>
