<svg width="517" height="582" viewBox="0 0 517 582" fill="none" xmlns="http://www.w3.org/2000/svg">
<path d="M281.02 129.361C280.82 129.856 280.71 130.477 281.23 130.763C281.48 130.898 281.82 130.92 282.14 130.935C285.95 131.111 289.83 130.963 293.68 130.496C294.74 130.366 295.92 130.158 296.57 129.492C297 129.06 297.11 128.518 297.18 128.004C297.45 126.243 298.29 122.589 296.7 121.177C295.45 120.068 293.04 120.708 291.36 121.177C286.54 122.53 282.5 125.694 281.02 129.361Z" fill="#70A342"/>
<path d="M333.7 125.958C330.67 128.054 328.79 130.974 328.09 133.921C330.99 133.765 333.89 133.909 336.79 133.658C339.69 133.407 342.71 132.705 344.9 131.149C345.91 130.433 346.7 129.565 347.38 128.666C348.5 127.187 349.03 125.683 347.74 124.322C346.96 123.503 346.03 122.931 344.61 122.923C340.74 122.9 336.7 123.894 333.7 125.958Z" fill="#7CB442"/>
<path d="M227.21 138.674C223.59 141.169 221.43 144.997 222.46 148.361C224.63 147.664 226.8 146.966 228.97 146.269C232.26 145.209 235.71 144.063 237.99 141.96C239.49 140.572 242.35 135.48 239.18 134.708C237.72 134.351 234.39 135.494 232.97 135.944C230.88 136.604 228.9 137.508 227.21 138.674Z" fill="#7CB442"/>
<path d="M152.35 144.488C149.68 145.185 147.22 146.363 144.99 147.72C141.55 149.815 138.41 152.707 138.39 155.876C138.39 156.116 138.45 156.404 138.75 156.467C138.88 156.493 139.02 156.472 139.14 156.451C143.61 155.74 148.07 155.031 152.53 154.32C153.49 154.167 154.48 154.009 155.35 153.633C156.41 153.18 157.21 152.444 157.9 151.689C159.51 149.899 161.26 146.861 159.99 144.857C158.82 143.018 154.47 143.935 152.35 144.488Z" fill="#70A342"/>
<path d="M430.33 122.585C422.77 124.765 414.67 124.022 406.81 123.946C379.85 123.686 352.04 131.666 325.77 128.974C323.53 128.744 321.22 128.954 318.97 129.45C304.01 132.766 285.39 129.515 270.68 133.039C264.88 134.43 259.5 136.8 254.03 138.91C207.1 156.996 153.32 155.805 102.88 152.706C94.53 152.193 86.09 151.642 77.65 152.65C70.87 153.458 64.28 155.247 57.65 156.754C41.39 160.446 24.63 162.471 8.02002 162.75C6.97002 165.048 5.05 168.015 4 170.313C21.02 170.709 38.28 169.586 55.29 166.973C68.03 165.018 80.67 162.225 93.5 161.184C110.24 159.824 127.07 161.524 142.07 166.095C145.11 167.021 148.16 168.079 151.53 168.182C155.01 168.29 158.49 167.372 161.91 166.563C190.02 159.897 219.36 159.946 248.12 160.058C256.95 154.282 267.52 148.716 278.44 145.889C285.33 144.106 292.55 143.66 299.68 143.231C326.91 141.586 354.17 139.94 381.33 139.741C400.42 139.6 420.47 139.997 437.97 133.139C435.49 129.333 432.81 126.387 430.33 122.585Z" fill="#89634B"/>
<path d="M426.33 126C418.77 128.18 410.67 127.437 402.81 127.361C375.85 127.101 348.04 135.081 321.77 132.389C319.53 132.159 317.22 132.369 314.97 132.865C300.01 136.181 281.39 132.93 266.68 136.454C260.88 137.845 255.5 140.215 250.03 142.325C203.1 160.411 149.32 159.22 98.88 156.121C90.53 155.608 82.09 155.057 73.65 156.065C66.87 156.873 60.28 158.662 53.65 160.169C37.39 163.861 20.63 165.886 4.02002 166.165C2.97002 168.463 1.05 171.43 0 173.728C17.02 174.124 34.28 173.001 51.29 170.388C64.03 168.433 76.67 165.64 89.5 164.599C106.24 163.239 123.07 164.939 138.07 169.51C141.11 170.436 144.16 171.494 147.53 171.597C151.01 171.705 154.49 170.787 157.91 169.978C186.02 163.312 215.36 163.361 244.12 163.473C252.95 157.697 263.52 152.131 274.44 149.304C281.33 147.521 288.55 147.075 295.68 146.646C322.91 145.001 350.17 143.355 377.33 143.156C396.42 143.015 416.47 143.412 433.97 136.554C431.49 132.748 428.81 129.802 426.33 126Z" fill="#89634B"/>
<path d="M300.45 92.7486C297.69 104.667 294.78 115.463 292.01 127.382C296.15 127.785 299.41 128.974 301.9 130.527C304.39 132.08 305.79 134.549 305.6 137.076C317.02 131.762 309.87 123.077 308.06 122.945C310.84 114.083 312.12 107.568 314.16 98.6417C314.62 96.6277 314.92 94.2797 312.99 92.9827C312.25 92.4844 311.27 92.2212 310.31 91.995C307.16 91.2633 303.3 91.2101 300.45 92.7486Z" fill="#70A342"/>
<path d="M185.92 122.245C173.69 130.962 160.72 140.832 150.25 150.717C152.47 154.347 152.2 158.792 147.67 161.458C151.81 162.29 156.65 161.467 160.21 159.327C163.77 157.188 162.68 153.873 162.56 150.624C175.15 144.261 189.41 136.415 199.53 127.918C201.29 126.446 203.1 124.763 203.17 122.876C203.25 120.468 200.26 118.657 197.07 118.427C193.88 118.196 188.36 120.507 185.92 122.245Z" fill="#70A342"/>
<path d="M379.62 72.3139C398.58 85.9918 408.26 100.907 415.9 120.099C423.53 139.291 422.55 160.831 413 180.65C410.32 186.225 406.95 191.701 402.26 196.588C393.7 205.507 380.76 212.17 366.79 214.844C352.83 217.518 338 216.177 326.15 211.168C317.53 207.525 310.39 201.84 307.39 194.714C304.39 187.589 305.96 178.997 312.59 172.72C316.73 168.79 322.58 165.946 328.77 164.194C341.42 160.614 356.63 161.956 364.67 169.202C372.71 176.447 370.5 189.71 358.79 194.963C351.17 198.381 339.63 196.745 337.94 190.609C339.77 189.707 341.98 190.535 343.93 191.038C348.83 192.312 354.98 191.089 358.81 188.079C362.64 185.069 363.94 180.452 361.94 176.896C358.55 170.874 347.73 169.439 338.78 171.074C332.34 172.25 325.81 174.877 322.47 179.243C320.83 181.387 320.06 183.815 319.85 186.198C319.27 192.713 322.86 199.103 329.33 203.065C335.8 207.026 346.89 208.828 355.63 207.968C367.44 206.806 374.71 203.599 385.56 193.837C403.11 178.036 401.47 161.602 398.63 145.055C395.79 128.507 382.19 113.664 362.32 106.74C345.29 100.8 324.84 100.757 305.52 103.872C286.19 106.988 267.68 113.073 249.34 119.131C234.8 123.93 218.36 128.815 204.44 124.726C193.52 121.515 186.65 112.574 188.18 103.553C190.28 91.1409 201.81 78.4804 211.77 69.4215C257.64 27.6996 349.69 50.7147 379.62 72.3139Z" fill="#7CB442"/>
<path d="M249.33 119.133C267.67 113.076 286.19 106.99 305.51 103.875C324.83 100.759 345.28 100.803 362.32 106.742C369.28 109.167 375.44 112.58 380.67 116.68C373.51 107.953 364.37 100.138 351.61 96.4907C347.14 95.2116 342.35 94.4908 337.52 93.9975C317.28 91.9266 296.12 93.7793 275.73 97.8601C262.43 100.519 249.41 104.112 236.63 108.174C225.45 111.726 214.52 114.668 206.86 122.257C206.06 123.054 205.3 123.907 204.7 124.797C218.56 128.748 234.89 123.903 249.33 119.133Z" fill="#92C850"/>
<path d="M188.18 99.7518C186.65 108.775 193.51 117.714 204.44 120.925C212.22 123.212 220.79 122.69 229.38 120.947C232.59 117.805 234.33 114.246 235.9 110.551C244.63 89.9042 236.27 87.2719 226.04 87.3969C232.88 74.1325 233.63 56.9525 231.98 52.3979C224.61 55.7938 217.79 60.1442 211.77 65.6203C201.81 74.6796 190.28 87.3397 188.18 99.7518Z" fill="#70A342"/>
<path d="M236.63 104.369C225.45 107.921 214.52 110.863 206.86 118.452C206.06 119.248 205.3 120.102 204.7 120.99C204.85 121.033 205.01 121.055 205.16 121.102C214.92 124.283 229.03 121.014 229.39 120.941C232.59 117.801 234.33 114.244 235.9 110.551C236.95 108.056 237.75 105.831 238.34 103.836C237.77 104.014 237.19 104.188 236.63 104.369Z" fill="#74AA42"/>
<path d="M251.19 97.975C247.44 108.762 239.75 132.046 231.87 141.759C238.76 143.975 241.39 152.537 237.71 154.743C244.34 154.101 253.13 143.067 246.88 137.677C251.53 131.881 255.47 125.596 259.27 119.508C262.2 114.832 270.5 95.939 269.97 91.0008C269.7 88.5293 267.86 85.7539 264.5 85.8432C263.25 85.875 262.04 86.3174 260.94 86.8263C256.13 89.0402 252.59 93.977 251.19 97.975Z" fill="#7CB442"/>
<path d="M347.49 94.6637C346.09 106.286 345.82 118.902 338.29 129.525C343.19 129.378 352.71 129.989 355.32 139.943C360.67 132.351 357.9 124.521 355.64 123.597C360.12 116.266 362.94 111.407 366.05 103.767C366.94 101.572 367.39 99.3321 367.3 97.1003C366.79 83.1979 348.85 83.3475 347.49 94.6637Z" fill="#7CB442"/>
<path d="M109.74 85.7671C127.38 71.6879 171.84 58.0164 194.34 48.8124C200.69 46.2145 208.19 43.7798 214.48 45.6742C219.67 47.2396 222.49 51.4836 222.88 55.743C223.27 60.0025 221.65 64.3363 220.05 68.5635C217.1 76.3427 214.15 84.1216 211.19 91.9008C216.25 92.2816 222.96 90.1389 225.68 93.2089C226.57 94.2038 226.51 95.5358 226.35 96.7778C224.93 107.513 217.15 118.098 205.51 125.142C193.86 132.186 178.53 135.571 164.44 134.214C159.24 133.713 154.25 132.605 149.34 131.384C131.77 127.004 115.02 121.104 99.53 113.828C98.33 104.721 96.86 96.0448 109.74 85.7671Z" fill="#7CB442"/>
<path d="M164.78 106.798C177.61 105.058 187 95.9918 185.75 86.5503C184.51 77.1084 173.09 70.8654 160.26 72.6061C147.43 74.3468 138.04 83.4121 139.28 92.854C140.53 102.296 151.94 108.539 164.78 106.798Z" fill="#92C850"/>
<path d="M163.1 94.0737C166.38 93.6286 168.78 91.3105 168.46 88.8961C168.14 86.4816 165.22 84.8851 161.94 85.3303C158.66 85.7754 156.26 88.0936 156.58 90.508C156.9 92.9225 159.82 94.5187 163.1 94.0737Z" fill="#3C5A2A"/>
<path d="M164.44 134.212C178.03 135.52 192.75 132.409 204.23 125.874C201.72 122.683 197.91 120.083 193.57 118.244C187.47 115.663 180.42 114.411 173.35 113.546C155.58 111.372 137.2 111.478 118.9 112.101C113.19 112.294 106.4 112.489 100.02 113.3C99.86 113.479 99.7 113.649 99.54 113.829C115.02 121.104 131.77 127.006 149.34 131.385C154.25 132.603 159.24 133.711 164.44 134.212Z" fill="#92C850"/>
<path d="M265.04 58.8945C265.51 62.4289 261.99 65.8203 257.19 66.4716C252.39 67.1232 248.12 64.7862 247.65 61.2535C247.18 57.7208 250.7 54.3277 255.5 53.6764C260.3 53.0248 264.57 55.3618 265.04 58.8945Z" fill="#92C850"/>
<path d="M295.631 73.9063C295.751 74.8544 294.811 75.7641 293.521 75.9389C292.241 76.1137 291.091 75.4872 290.961 74.5391C290.841 73.5911 291.78 72.6813 293.07 72.5065C294.36 72.3317 295.501 72.9583 295.631 73.9063Z" fill="#92C850"/>
<path d="M345.56 75.0205C345.73 76.2886 344.47 77.5057 342.74 77.7392C341.02 77.9727 339.49 77.1348 339.32 75.8667C339.15 74.5986 340.42 73.3832 342.14 73.1495C343.86 72.9157 345.39 73.7524 345.56 75.0205Z" fill="#92C850"/>
<path d="M344.04 67.1333C345.5 66.9349 346.571 65.902 346.431 64.8261C346.291 63.7503 344.99 63.0389 343.52 63.2373C342.06 63.4356 340.99 64.4686 341.13 65.5444C341.28 66.6203 342.58 67.3316 344.04 67.1333Z" fill="#92C850"/>
<path d="M327.05 71.1903C327.16 72.0294 326.33 72.8346 325.19 72.9893C324.05 73.144 323.03 72.5895 322.92 71.7504C322.81 70.9113 323.64 70.1061 324.79 69.9514C325.93 69.7967 326.94 70.3513 327.05 71.1903Z" fill="#92C850"/>
<path d="M202.44 74.7979C202.52 75.4034 201.92 75.9852 201.1 76.0969C200.28 76.2085 199.54 75.8078 199.46 75.2023C199.38 74.5968 199.99 74.0149 200.81 73.9032C201.63 73.7899 202.36 74.1906 202.44 74.7979Z" fill="#92C850"/>
<path d="M350.426 575C348.354 567.029 355.994 561.746 361.334 555.937C379.663 536.007 372.186 506.72 397.843 489.88C400.036 488.445 400.863 486.492 400.729 484.285C399.838 469.558 422.318 459.048 420.592 444.297C419.906 438.475 415.81 431.939 412.613 425.605C385.209 371.293 423.917 332.255 466.573 297.729C473.632 292.016 480.869 286.275 483.125 278.881C484.936 272.95 483.493 266.118 482.97 259.552C481.711 243.463 486.111 228.76 496 216.014C489.329 212.798 481.081 208.215 474.41 205C462.095 217.335 454.497 231.454 451.809 246.968C449.8 258.584 450.529 271.013 445.535 281.729C439.02 295.716 422.658 306.526 398.303 312.933C393.365 314.231 387.996 315.399 385.485 317.813C382.881 320.305 383.56 323.889 383.928 327.302C387.013 355.425 367.814 377.365 348.792 398.795C361.54 411.526 372.483 425.34 374.442 436.513C375.673 443.564 372.419 449.446 369.165 455.241C356.75 477.391 344.329 499.563 327.337 520.126C315.404 534.578 301.121 549.187 311.697 569.562C325.484 571.73 336.654 572.835 350.426 575Z" fill="#89634B"/>
<path d="M372.302 582C370.749 574.186 377.549 568.668 382.372 562.715C398.932 542.293 393.332 513.577 416.17 495.938C418.112 494.435 418.896 492.469 418.854 490.29C418.529 475.743 438.401 464.491 437.355 449.951C436.946 444.212 433.584 437.896 431 431.744C408.861 379.002 443.725 338.895 481.887 303.105C488.2 297.183 494.669 291.226 496.858 283.821C498.616 277.88 497.571 271.171 497.324 264.689C496.731 248.806 501.01 234.084 510 221.092C504.301 218.159 497.275 213.932 491.576 211C480.489 223.676 473.434 237.942 470.623 253.403C468.512 264.98 468.766 277.258 464.084 288.056C457.99 302.149 443.428 313.469 422.052 320.729C417.717 322.199 413.02 323.558 410.754 326.042C408.416 328.607 408.896 332.131 409.108 335.497C410.916 363.225 393.544 385.669 376.342 407.603C387.033 419.729 396.115 432.993 397.47 443.982C398.325 450.916 395.309 456.862 392.308 462.722C380.826 485.12 369.336 507.54 353.927 528.539C343.102 543.297 330.228 558.298 338.794 578.073C350.714 579.701 360.389 580.374 372.302 582Z" fill="#6C4E3B"/>
<path d="M513.511 223.131C507.003 223.484 511.953 214.703 514.251 208.106C522.147 185.458 498.381 186.627 515.506 157.313C516.965 154.813 516.747 153.561 515.4 153.217C506.397 150.936 523.726 126.168 513.849 124.715C509.95 124.144 502.153 126.834 495.399 128.665C437.419 144.376 455.763 97.2166 480.643 47.0771C484.753 38.7823 489.04 30.2974 487.299 26.4461C485.903 23.3536 480.671 23.3267 476.533 22.428C466.409 20.2183 462.856 12.6456 466.014 0C457.399 5.98301 446.408 13.247 437.786 19.23C431.906 34.2141 431.85 44.8689 437.61 50.9004C441.917 55.4203 449.489 57.3707 450.236 64.6817C451.223 74.2164 440.345 92.9242 418.835 118.685C414.478 123.905 409.607 129.528 408.345 132.566C407.04 135.707 409.698 135.804 411.954 136.17C430.559 139.15 422.875 163.099 415.099 186.76C435.184 176.746 454.015 168.773 462.158 169.224C467.297 169.509 467.178 174.04 467.022 178.543C466.423 195.745 465.831 212.963 459.662 234.402C455.333 249.464 448.671 266.911 470.731 260.717C486.086 247.388 498.17 236.448 513.511 223.131Z" fill="#89634B"/>
</svg>
