<svg width="292" height="273" viewBox="0 0 292 273" fill="none" xmlns="http://www.w3.org/2000/svg">
<path d="M138.954 6.79957C117.58 12.4236 121.978 30.0986 112.421 37.3286C102.864 44.5606 93.974 48.7786 92.305 63.6406C90.736 77.6156 94.611 86.7966 110.907 93.1866C112.466 101.505 116.797 125.057 120.661 149.932C121.109 152.816 121.602 155.97 122.129 159.341C127.222 191.876 135.748 246.329 135.985 269.936L139.183 269.91C138.946 246.119 130.402 191.552 125.298 158.951C124.77 155.582 124.277 152.428 123.83 149.544C119.107 119.123 113.681 90.6756 113.471 89.5766C112.285 79.8196 110.729 57.3946 118.998 43.3856C129.807 25.0776 158.784 5.79459 160.596 1.37559C162.408 -3.04341 154.896 4.38757 138.954 6.79957Z" fill="#89634B"/>
<path d="M174.012 174.617C160.053 189.874 159.451 211.866 160.117 222.491C159.664 224.586 159.347 226.626 159.174 228.588C157.428 248.429 160.338 271.856 160.367 272.09L163.547 271.774C163.517 271.542 160.642 248.375 162.364 228.808C162.513 227.122 162.777 225.375 163.139 223.588C174.175 203.598 198.024 203.43 227.603 190.585C259.514 176.726 266.56 163.77 288.634 155.835C242.785 143.083 193.032 153.828 174.012 174.617Z" fill="#7CB442"/>
<path d="M204.26 22.7725C199.242 18.2585 159.24 20.4555 140.676 40.5415C113.506 70.8705 119.393 99.9955 129.355 110.893C135.655 117.785 139.055 124.844 140.705 129.103C140.609 130.393 140.521 131.703 140.436 133.032C140.095 138.42 139.468 144.555 138.741 151.66C135.729 181.066 131.177 225.507 143.698 271.062L146.805 270.39C134.41 225.295 138.933 181.137 141.925 151.918C142.656 144.787 143.287 138.628 143.628 133.19C143.727 131.63 143.834 130.096 143.948 128.585C151.058 113.86 162.72 109.538 174.609 96.7475C187.636 82.7345 209.275 27.2855 204.26 22.7725Z" fill="#7CB442"/>
<path d="M119.848 178.099C119.952 177.319 120.045 176.544 120.135 175.77C129.071 164.982 133.887 151.705 133.101 138.16C132.261 123.698 127.827 114.056 121.34 112.25C121.34 112.25 93.5247 119.331 93.8077 129.344C94.0897 139.359 94.8847 146.596 100.574 155.634C105.537 163.514 113.785 165.557 117.129 173.839C117.004 175.118 116.855 176.421 116.676 177.752C112.511 207.267 119.816 252.788 131.71 271.424L134.492 270.026C122.864 251.814 115.746 207.142 119.848 178.099Z" fill="#7CB442"/>
<path d="M125.01 224.95C123.563 219.597 122.068 214.065 120.36 207.941C110.214 171.572 95.8709 156.637 85.6269 150.511C82.5509 148.672 79.0549 147.615 75.2409 147.31C69.0159 145.35 60.1809 144.099 50.0939 147.218C30.3969 153.308 16.8109 170.782 -0.00012207 173.343C11.7149 187.353 52.6419 182.23 63.3389 171.234C73.2579 161.037 75.4439 155.278 82.8839 152.332C83.2089 152.5 83.5289 152.677 83.8409 152.864C93.6219 158.71 107.357 173.13 117.257 208.622C118.963 214.736 120.458 220.264 121.903 225.612C127.334 245.696 131.257 260.208 137.4 271.4L140.275 270.159C134.281 259.243 130.593 245.599 125.01 224.95Z" fill="#7CB442"/>
<path d="M282.178 98.9937C243.802 95.9817 226.482 95.0757 204.405 120.989C186.416 142.104 186.693 176.82 187.413 188.951C186.931 190.361 186.526 191.708 186.203 192.987C184.319 200.437 183.959 211.797 183.543 224.95C183.112 238.665 182.619 254.21 180.401 270.558L183.575 270.897C185.811 254.418 186.304 238.804 186.739 225.028C187.149 212.022 187.504 200.789 189.321 193.607C189.878 191.403 190.688 188.985 191.73 186.41C205.077 166.95 229.507 160.9 247.871 156.689C268.248 152.017 283.87 118.577 288.624 108.333C293.387 98.0907 292.707 99.8967 282.178 98.9937Z" fill="#89634B"/>
<path d="M144.401 208.766C143.722 208.031 143.037 207.322 142.349 206.634C140.737 202.546 135.99 195.226 122.108 190.384C99.6931 182.551 66.6391 194.2 59.3931 216.495C52.1471 238.79 44.4501 247.225 44.4501 247.225C60.2991 248.431 71.6201 208.258 118.26 218.904C133.507 223.091 140.313 214.627 142.413 211.104C162.723 233.789 152.815 269.211 152.711 269.57L155.807 270.275C155.919 269.892 158.518 260.768 158.462 248.599C158.408 237.307 155.927 221.228 144.401 208.766Z" fill="#89634B"/>
<path d="M82.4866 141.626C82.4866 141.626 86.0516 130.779 101.845 125.809C117.638 120.837 121.34 112.25 121.34 112.25C121.34 112.25 112.545 113.756 100.657 111.347C88.7676 108.938 85.3726 107.732 82.4866 110.444C76.5406 116.317 82.3156 132.285 82.4866 141.626Z" fill="#89634B"/>
<path d="M215.526 18.0456C162.007 38.5346 140.557 72.6296 147.859 98.5396C152.384 114.6 153.844 128.244 154.3 136.297C153.839 138.73 153.378 141.236 152.904 143.846C147.398 174.208 145.482 222.85 147.904 270.79L151.099 270.662C148.685 222.899 150.588 174.479 156.062 144.295C156.408 142.392 156.747 140.548 157.082 138.744C159.721 134.124 163.593 129.807 174.634 118.676C189.577 103.611 198.632 95.1746 203.675 74.6886C208.717 54.1996 220.368 31.3026 224.419 21.6606C228.47 12.0216 223.766 14.8326 215.526 18.0456Z" fill="#89634B"/>
<path d="M160.596 1.37559C162.411 -3.04341 154.894 4.38757 138.955 6.79957C124.039 10.7236 121.672 20.5166 118.357 28.5336C118.274 28.9146 114.013 48.4886 113.27 61.8136C114.136 55.2286 115.857 48.7006 118.994 43.3856C129.806 25.0776 158.781 5.79459 160.596 1.37559Z" fill="#7CB442"/>
<path d="M231.907 133.599C231.366 133.803 231.113 134.358 231.345 134.84C231.518 135.2 231.913 135.415 232.326 135.415C232.464 135.415 232.605 135.391 232.741 135.339C237.317 133.611 244.974 133.015 253.081 132.386C262.243 131.672 271.661 130.939 278.065 128.492C278.667 127.504 279.248 126.523 279.811 125.551C274.07 128.852 263.309 129.689 252.894 130.5C244.617 131.145 236.795 131.753 231.907 133.599Z" fill="#7CB442"/>
<path d="M221.383 141.985C220.863 142.231 220.666 142.803 220.943 143.264C221.135 143.583 221.503 143.765 221.884 143.765C222.052 143.765 222.225 143.73 222.385 143.654C237.141 136.673 248.632 136.623 258.773 136.58C264.199 136.557 269.025 136.538 273.539 135.422C274.123 134.59 274.696 133.753 275.253 132.911C270.389 134.632 264.985 134.661 258.762 134.687C248.891 134.729 236.603 134.781 221.383 141.985Z" fill="#7CB442"/>
<path d="M214.509 148.739C213.941 148.879 213.608 149.401 213.768 149.903C213.925 150.406 214.511 150.702 215.079 150.56C224.953 148.129 242.587 150.29 250.073 156.064C250.793 155.823 251.507 155.548 252.213 155.241C244.53 148.555 225.43 146.051 214.509 148.739Z" fill="#7CB442"/>
<path d="M211.163 152.426C210.582 152.516 210.195 153.005 210.294 153.518C210.395 154.034 210.949 154.376 211.528 154.289C211.749 154.254 232.696 151.128 244.235 157.535C245.152 157.318 246.055 157.11 246.948 156.904C235.078 148.858 212.138 152.275 211.163 152.426Z" fill="#7CB442"/>
<path d="M206.219 158.152C205.649 158.286 205.313 158.804 205.465 159.31C205.593 159.733 206.022 160.012 206.494 160.012C206.585 160.012 206.678 160.003 206.768 159.982C206.939 159.941 222.83 156.272 238.594 158.92C240.044 158.547 241.477 158.194 242.885 157.856C242.839 157.84 242.794 157.821 242.743 157.809C225.336 153.723 206.992 157.97 206.219 158.152Z" fill="#7CB442"/>
<path d="M174.564 105.441C167.542 109.356 161.479 112.735 158.289 119.641C158.065 120.123 158.327 120.676 158.87 120.875C159.003 120.922 159.139 120.946 159.273 120.946C159.694 120.946 160.091 120.723 160.259 120.359C163.19 114.016 168.984 110.784 175.694 107.044C183.3 102.802 192.284 97.7875 199.695 86.7675C201.177 83.3295 202.454 79.5285 203.546 75.1855C195.772 93.6045 184.539 99.8796 174.564 105.441Z" fill="#7CB442"/>
<path d="M173.106 114.702C165.007 120.681 158.014 125.842 155.629 132.245C155.445 132.741 155.749 133.276 156.306 133.439C156.418 133.472 156.53 133.486 156.639 133.486C157.087 133.486 157.502 133.233 157.652 132.836C159.845 126.949 166.619 121.946 174.468 116.154C177.94 113.591 181.589 110.896 185.155 107.909C189.714 103.015 193.493 98.3716 196.598 92.9626C190.021 102.207 181.093 108.806 173.106 114.702Z" fill="#7CB442"/>
<path d="M143.334 84.7435C143.569 87.8675 143.803 91.0375 143.91 94.3475C144.984 100.831 145.751 106.455 145.184 110.768C145.186 110.758 145.189 110.751 145.192 110.742C146.663 100.675 146.052 92.5125 145.461 84.6205C144.312 69.2935 143.236 54.8055 157.8 28.6335C156.707 29.1345 155.628 29.6635 154.564 30.2215C141.136 55.3275 142.202 69.6335 143.334 84.7435Z" fill="#89634B"/>
<path d="M141.25 91.3568C142.583 99.2088 143.734 105.989 143.039 110.772C142.964 111.29 143.374 111.765 143.958 111.832C144.003 111.836 144.051 111.839 144.097 111.839C144.624 111.839 145.083 111.491 145.152 111.014C145.163 110.933 145.171 110.846 145.181 110.765C145.749 106.453 144.981 100.828 143.907 94.3458C143.731 93.2768 143.545 92.1867 143.358 91.0757C140.424 73.7907 136.776 52.2877 148.742 33.6877C147.263 34.6907 145.842 35.7618 144.494 36.9008C135.094 55.0228 138.481 75.0387 141.25 91.3568Z" fill="#89634B"/>
<path d="M133.064 83.4416C133.29 84.9806 133.517 86.5076 133.73 88.0216C134.729 95.1356 136.592 100.488 138.236 105.212C140.358 111.307 142.189 116.57 141.653 123.845C141.616 124.365 142.061 124.816 142.647 124.85C142.671 124.85 142.695 124.852 142.716 124.852C143.273 124.852 143.742 124.469 143.78 123.968C144.342 116.343 142.458 110.926 140.275 104.654C138.657 100.006 136.824 94.7356 135.849 87.7866C135.635 86.2696 135.409 84.7376 135.182 83.1956C133.256 70.1476 131.273 56.7086 136.083 46.0576C134.588 47.9916 133.224 49.9186 131.979 51.8286C129.834 61.5536 131.467 72.6276 133.064 83.4416Z" fill="#89634B"/>
<path d="M103.128 44.2256C102.331 44.8706 101.561 45.5326 100.825 46.2206C100.364 53.4936 100.229 75.1896 113.306 88.1726C113.194 87.1536 113.082 86.0306 112.978 84.8216C100.9 70.3906 102.872 46.7856 103.128 44.2256Z" fill="#7CB442"/>
<path d="M95.7503 52.4725C96.2513 59.6215 98.7773 77.2825 111.444 89.2485C100.381 81.2495 94.3003 65.3545 92.7353 60.8035C92.5623 61.7065 92.4163 62.6505 92.3043 63.6435C92.2403 64.2015 92.1923 64.7475 92.1473 65.2885C95.2463 73.0125 102.263 87.1175 113.949 93.0805C113.786 92.0235 113.549 90.3595 113.312 88.2435C98.4333 74.4525 97.7863 51.7295 97.7623 49.5195C97.0343 50.4385 96.3573 51.4155 95.7503 52.4725Z" fill="#7CB442"/>
<path d="M102.654 111.718C101.998 111.605 101.332 111.482 100.655 111.345C97.5103 110.706 94.9653 110.155 92.8603 109.737C88.1643 110.626 83.5673 112.108 80.7663 113.101C80.4833 113.806 80.2763 114.572 80.1243 115.383C82.4823 114.506 87.9723 112.583 93.4703 111.557C86.9993 114.111 82.4403 117.544 79.8143 119.891C79.8333 120.75 79.8813 121.629 79.9583 122.53C81.9383 120.558 86.6693 116.411 93.9523 113.444C88.6923 117.187 83.4633 122.688 80.3793 126.164C80.5023 127.041 80.6383 127.923 80.7773 128.807C82.9383 126.298 87.2743 121.48 91.9303 117.527C87.4523 123.102 84.0863 130.604 82.0933 137.098C82.3063 138.716 82.4553 140.243 82.4823 141.624C82.4823 141.624 82.8133 140.631 83.7003 139.113C87.0233 127.105 94.3253 114.399 102.654 111.718Z" fill="#7CB442"/>
<path d="M53.5984 154.411C53.6534 153.891 53.2274 153.43 52.6414 153.378C52.0604 153.326 51.5354 153.706 51.4764 154.227C49.8484 169.027 36.4784 179.035 32.6434 181.619C33.9704 181.517 35.2944 181.385 36.6114 181.219C42.2154 176.926 52.1484 167.587 53.5984 154.411Z" fill="#89634B"/>
<path d="M60.4879 149.997C59.9009 149.948 59.3869 150.342 59.3389 150.865C58.0619 164.937 48.0609 176.356 44.7479 179.782C45.9899 179.496 47.2079 179.182 48.3879 178.843C52.7939 173.822 60.3279 163.554 61.4659 151.016C61.5109 150.496 61.0739 150.04 60.4879 149.997Z" fill="#89634B"/>
<path d="M66.8457 148.294C66.2627 148.268 65.7477 148.649 65.7057 149.169C64.7617 160.768 56.2417 173.374 53.5477 177.103C54.8377 176.597 56.0557 176.058 57.1877 175.488C60.8497 170.012 67.0087 159.451 67.8317 149.306C67.8747 148.786 67.4327 148.332 66.8457 148.294Z" fill="#89634B"/>
<path d="M71.5315 148.583C71.4935 148.062 70.9845 147.663 70.3985 147.701C69.8125 147.736 69.3674 148.185 69.4044 148.708C70.1634 158.933 63.0295 169.685 59.7255 174.068C61.1455 173.179 62.3665 172.23 63.3365 171.232C64.2555 170.286 65.1055 169.381 65.9025 168.511C69.0255 163.085 72.0665 155.801 71.5315 148.583Z" fill="#89634B"/>
<path d="M112.013 192.965C111.808 192.476 111.195 192.228 110.643 192.41C110.092 192.592 109.812 193.138 110.017 193.627C112.821 200.295 97.3642 213.698 90.7782 218.608C92.1722 218.258 93.6192 217.967 95.1142 217.733C101.604 212.459 115.107 200.33 112.013 192.965Z" fill="#7CB442"/>
<path d="M117.998 193.091C117.87 192.581 117.303 192.261 116.727 192.372C116.152 192.486 115.789 192.992 115.917 193.5C117.393 199.392 104.575 211.944 98.3358 217.334C99.3888 217.237 100.465 217.174 101.569 217.14C107.32 211.946 119.688 199.836 117.998 193.091Z" fill="#7CB442"/>
<path d="M123.04 194.779C122.877 194.278 122.286 193.987 121.721 194.132C121.156 194.276 120.828 194.797 120.991 195.301C122.8 200.9 110.28 212.334 104.268 217.122C105.246 217.138 106.245 217.188 107.26 217.256C112.889 212.596 125.199 201.456 123.04 194.779Z" fill="#7CB442"/>
<path d="M129.818 197.881C129.732 197.363 129.194 197.006 128.608 197.082C128.024 197.158 127.622 197.638 127.707 198.153C128.821 204.922 116.501 214.627 112.21 217.779C113.1 217.906 114.009 218.06 114.928 218.228C120.261 214.166 130.993 205.002 129.818 197.881Z" fill="#7CB442"/>
<path d="M134.059 200.505C133.957 199.99 133.406 199.65 132.825 199.735C132.244 199.825 131.857 200.314 131.956 200.829C132.961 205.943 122.74 214.691 117.304 218.703C117.624 218.772 117.935 218.833 118.258 218.906C118.786 219.051 119.3 219.178 119.806 219.294C124.814 215.455 135.258 206.619 134.059 200.505Z" fill="#7CB442"/>
</svg>
