<svg width="1440" height="372" viewBox="0 0 1440 372" fill="none" xmlns="http://www.w3.org/2000/svg">
<g clip-path="url(#clip0_500_202)">
<path d="M0 0H1440V372H0V0Z" fill="#3C7760"/>
<path d="M840 0.508597C864.928 42.664 920.499 68.2342 972.98 61.6965C1000.78 58.2346 1026.48 46.8472 1053.31 39.4564C1080.15 32.0665 1110.71 29.0375 1135.11 41.5341C1162.91 55.7783 1175.91 86.5489 1202.85 102.096C1233.19 119.605 1272.68 113.615 1307.86 106.677C1331.3 102.056 1358.15 97.894 1377.34 110.872C1400.18 126.318 1399.41 157.809 1389.61 181.99C1379.81 206.172 1363.21 228.805 1361.4 254.5C1359.77 277.702 1370.81 300.544 1387.1 318.559C1403.4 336.572 1424.66 350.357 1446.29 363L1446.33 -12.1034C1248.73 -8.32232 1037.6 -3.27157 840 0.508597Z" fill="#40B83E"/>
<path d="M948.739 -20.7917C959.66 12.4425 981.658 44.7886 1016.44 59.5486C1050.93 74.1868 1091.39 69.2236 1128.69 62.1574C1166 55.0912 1204.56 46.2044 1241.71 53.9144C1271.01 59.995 1297.43 76.6522 1313.84 99.3747C1328.19 119.268 1335.05 143.352 1351.95 161.551C1373.54 184.807 1411.02 194.927 1443.23 186.198V-9.34393C1419.99 -9.34393 1394.26 -9.3313 1371.01 -9.3313L948.739 -20.7917Z" fill="#244C3D"/>
<path d="M1445.3 337.627C1421.8 329.51 1405.16 309.2 1400.95 287.095C1398.74 275.447 1400.43 263.934 1405.27 252.998C1410.62 240.893 1418.7 229.66 1422.04 216.866C1425.07 205.249 1422.8 193.607 1415.21 183.794C1407.77 174.175 1396.78 167.19 1384.83 162.807C1355.34 151.994 1321.86 155.451 1292.71 143.6C1278.74 137.92 1268.29 128.653 1259.78 117.322C1251.76 106.66 1245.35 95.0615 1236.87 84.6787C1221.98 66.4695 1201.35 52.4408 1178.32 43.6288C1155.28 34.8142 1129.74 31.0854 1104.82 33.5102C1091.74 34.7826 1079.07 37.8017 1066.93 42.3474C1051.65 48.0682 1037.16 55.5997 1021.31 60.0598C1006.13 64.3332 988.787 65.8914 974.033 59.4745C961.808 54.1578 953.316 44.2781 946.557 33.971C933.644 14.2793 924.477 -11.0258 899.834 -21.5547C894.384 -23.8831 888.529 -25.0707 882.498 -24.9967C881.212 -24.9814 881.208 -23.177 882.498 -23.1932C911.705 -23.5521 926.875 4.35909 938.372 24.2726C944.323 34.5797 950.787 45.0798 960.319 53.0829C970.562 61.6829 983.722 65.7941 997.657 65.5686C1029.59 65.0528 1055.6 45.5793 1085.62 38.4933C1110.57 32.6058 1137.2 33.5544 1161.84 40.1841C1186.37 46.7832 1209.12 59.0733 1226.47 76.1129C1235.83 85.3054 1242.82 95.8957 1249.91 106.549C1257.1 117.37 1264.75 128.345 1275.75 136.381C1299.99 154.1 1332.88 153.473 1361.98 158.736C1376.95 161.444 1391.82 165.927 1403.59 174.994C1414.13 183.111 1421.71 194.462 1421.44 207.248C1421.16 220.724 1413.25 232.855 1407.1 244.742C1401.64 255.306 1397.67 266.079 1397.97 277.857C1398.49 298.972 1410.53 319.731 1429.59 332.038C1434.28 335.071 1439.38 337.504 1444.77 339.365C1445.97 339.782 1446.49 338.038 1445.3 337.627Z" fill="white"/>
<path d="M608.332 370.491C583.404 328.336 527.833 302.766 475.352 309.304C447.557 312.765 421.855 324.153 395.02 331.544C368.185 338.933 337.625 341.962 313.227 329.466C285.418 315.222 272.419 284.451 245.482 268.904C215.145 251.395 175.656 257.385 140.469 264.323C117.033 268.944 90.1851 273.106 70.9921 260.128C48.1491 244.682 48.919 213.191 58.719 189.01C68.519 164.828 85.126 142.195 86.933 116.5C88.564 93.2982 77.526 70.4558 61.229 52.4413C44.932 34.4278 23.676 20.6426 2.04004 7.99997L2 383.103C199.603 379.322 410.729 374.272 608.332 370.491Z" fill="#40B83E"/>
<path d="M494.492 387C483.571 353.766 461.573 321.42 426.793 306.66C392.3 292.022 351.845 296.985 314.537 304.051C277.229 311.117 238.674 320.004 201.523 312.294C172.223 306.214 145.797 289.556 129.396 266.834C115.038 246.94 108.184 222.857 91.286 204.658C69.693 181.401 32.213 171.282 -3.05176e-05 180.011V375.552C23.246 375.552 48.9719 375.54 72.2179 375.54L494.492 387Z" fill="#E5E7EB"/>
<path d="M494.492 387C483.571 353.766 461.573 321.42 426.793 306.66C392.3 292.022 351.845 296.985 314.537 304.051C277.229 311.117 238.674 320.004 201.523 312.294C172.223 306.214 145.797 289.556 129.396 266.834C115.038 246.94 108.184 222.857 91.2862 204.658C69.6932 181.401 32.2132 171.282 0.000213623 180.011V375.553C23.2462 375.553 48.9722 375.54 72.2182 375.54L494.492 387Z" fill="#244C3D"/>
<path d="M1.521 25.3729C25.021 33.4905 41.667 53.7999 45.871 75.9047C48.087 87.5536 46.398 99.0664 41.558 110.002C36.201 122.107 28.122 133.34 24.783 146.135C21.752 157.751 24.019 169.394 31.612 179.207C39.055 188.826 50.046 195.811 61.997 200.193C91.487 211.006 124.962 207.549 154.11 219.4C168.082 225.08 178.529 234.347 187.047 245.678C195.063 256.34 201.47 267.939 209.957 278.321C224.842 296.531 245.469 310.559 268.503 319.371C291.543 328.186 317.085 331.915 342.008 329.49C355.086 328.218 367.75 325.198 379.892 320.653C395.175 314.932 409.668 307.4 425.515 302.94C440.697 298.667 458.037 297.109 472.791 303.526C485.016 308.842 493.508 318.722 500.267 329.029C513.18 348.721 522.347 374.026 546.99 384.555C552.44 386.883 558.295 388.071 564.326 387.997C565.612 387.982 565.616 386.177 564.326 386.193C535.119 386.552 519.949 358.641 508.452 338.728C502.501 328.42 496.037 317.92 486.505 309.917C476.262 301.317 463.102 297.206 449.167 297.432C417.237 297.947 391.22 317.421 361.201 324.507C336.258 330.394 309.619 329.446 284.979 322.816C260.452 316.217 237.707 303.927 220.357 286.887C210.997 277.695 204 267.104 196.918 256.451C189.725 245.63 182.074 234.656 171.077 226.619C146.831 208.901 113.945 209.527 84.842 204.264C69.872 201.556 55.008 197.073 43.233 188.006C32.693 179.889 25.117 168.538 25.382 155.752C25.661 142.276 33.576 130.145 39.721 118.258C45.182 107.694 49.152 96.9211 48.858 85.1432C48.33 64.0285 36.29 43.2692 17.238 30.962C12.543 27.9294 7.44298 25.4964 2.05298 23.6352C0.849979 23.2186 0.329996 24.9617 1.521 25.3729Z" fill="#E5E7EB"/>
</g>
<defs>
<clipPath id="clip0_500_202">
<path d="M0 0H1440V372H0V0Z" fill="white"/>
</clipPath>
</defs>
</svg>
