<svg width="328" height="528" viewBox="0 0 328 528" fill="none" xmlns="http://www.w3.org/2000/svg">
<path d="M178.755 22.2008C180.718 17.6858 187.379 14.7978 194.187 14.7098C200.996 14.6218 207.74 16.9828 212.872 20.3478C218.002 23.7128 221.695 28.0148 224.76 32.4208C235.608 48.0088 239.344 65.4578 238.748 82.3978C238.393 92.5038 233.864 102.542 226.221 110.824C223.41 113.87 220.086 116.655 216.612 119.329C213.825 121.475 210.921 123.567 207.583 125.287C199.17 129.624 187.864 131.38 177.373 129.414C166.883 127.449 157.551 121.597 154.297 114.295C152.686 110.682 152.537 106.876 152.903 103.174C153.581 96.3448 155.985 89.6668 159.972 83.5458C165.572 74.9468 174.203 67.5198 179.442 58.7978C186.295 47.3938 187.214 33.6738 178.755 22.2008Z" fill="#404041"/>
<path d="M205.645 18.6546C212.495 23.2246 216.411 30.7146 219.596 38.0766C222.579 44.9706 225.189 52.1656 225.432 59.6636C225.675 67.1616 223.267 75.0796 217.492 80.3386C211.718 85.5986 202.245 87.4446 195.63 83.4436C190.539 80.3646 187.934 74.4906 187.619 68.7286C187.229 61.6166 189.749 53.8646 186.116 47.6936C183.702 43.5946 178.878 40.9326 177.347 36.4546C175.45 30.9056 178.113 23.6686 182.528 19.8266C190.091 13.2476 200.375 15.1396 205.645 18.6546Z" fill="#FFF6E6"/>
<path d="M203.055 19.3776C202.945 19.2636 202.83 19.1526 202.717 19.0396C201.773 18.4376 200.784 17.9006 199.727 17.4726C193.779 15.0596 188.371 16.2076 184.379 19.4756C184.353 19.5796 184.315 19.6786 184.291 19.7826C183.101 25.2826 182.006 31.1706 181.058 36.9576C182.642 39.9396 185.132 42.4876 188.289 43.9766C192.243 45.8416 197.204 45.9236 201.132 43.8786C205.538 41.5836 208.221 36.8356 208.377 32.1276C208.533 27.4206 206.374 22.8386 203.055 19.3776Z" fill="#FFE86D"/>
<path d="M198.631 25.7716C200.455 25.5456 201.765 23.9796 201.557 22.2746C201.349 20.5696 199.701 19.3716 197.877 19.5976C196.052 19.8236 194.742 21.3896 194.95 23.0946C195.159 24.7996 196.807 25.9976 198.631 25.7716Z" fill="#404041"/>
<path d="M192.985 35.5628C191.654 39.4038 188.838 42.8668 185.096 45.2588C174.053 46.4068 162.574 47.6098 151.478 47.4298C140.382 47.2498 129.201 45.6948 119.208 41.6538C138.265 35.7578 158.272 31.4578 178.387 32.0008C183.234 32.1328 189.435 32.7528 192.985 35.5628Z" fill="#C87129"/>
<path d="M170.048 15.4348C161.854 15.0088 153.559 14.9738 145.475 16.4068C137.391 17.8398 129.479 20.8268 123.404 25.8248C117.329 30.8218 113.265 37.9708 113.489 45.2458C118.167 43.0818 123.53 42.1238 128.719 41.3998C148.813 38.5988 169.225 37.8208 189.435 39.0858C189.93 39.1178 190.46 39.1428 190.896 38.9228C191.263 38.7378 191.503 38.4058 191.72 38.0828C193.821 34.9678 195.238 31.3998 195.076 27.8038C194.914 24.2078 193.002 20.6038 189.59 18.6998C187.172 17.3508 184.245 16.9378 181.405 16.5508C177.869 16.0718 173.625 15.6208 170.048 15.4348Z" fill="#F7971D"/>
<path d="M123.148 24.8646C117.181 30.0636 113.193 37.4936 113.42 45.0486C116.701 43.4396 120.323 42.4706 123.983 41.7706C126.699 39.1346 129.179 36.3016 131.233 33.1926C134.437 28.3466 136.586 22.7966 136.85 17.1686C131.811 18.9176 127.084 21.4356 123.148 24.8646Z" fill="#404041"/>
<path d="M241.672 65.0208C244.549 65.5408 246.703 67.9628 247.503 70.6288C248.303 73.2938 247.963 76.1658 247.346 78.8978C244.956 89.4978 238.577 99.0618 230.758 107.052C222.938 115.042 213.676 121.622 204.435 128.102C205.979 127.019 207.066 120.521 207.751 118.691C208.917 115.572 210.144 112.473 211.429 109.396C214.099 103.004 217.026 96.7038 220.2 90.5148C223.541 83.9988 230.96 63.0858 241.672 65.0208Z" fill="#404041"/>
<path d="M161.882 65.8757C159.08 68.5647 157.248 72.0377 155.777 75.5617C152.769 82.7717 151.091 90.4737 150.842 98.1957C150.671 103.511 151.215 108.972 153.663 113.696C155.151 116.569 157.902 119.351 161.25 119.034C163.735 118.8 165.71 116.933 167.341 115.092C175.913 105.414 181.198 93.1557 182.475 80.6047C183.006 75.3877 183.777 69.5507 179.792 65.5807C174.589 60.3947 167.223 60.7497 161.882 65.8757Z" fill="#404041"/>
<path d="M165.544 111.135C157.348 144.496 149.153 177.857 140.957 211.218C140.715 212.203 140.509 213.309 141.307 214.054C141.959 214.663 143.108 214.852 144.189 214.96C155.318 216.071 167.774 211.617 174.042 204.286C177.131 210.153 185.584 212.597 194.471 212.568C190.938 178.206 183.697 144.287 172.832 111.216C172.241 109.416 166.008 109.248 165.544 111.135Z" fill="#404041"/>
<path d="M92.8728 143.624C128.174 135.022 163.603 126.79 199.148 118.929C208.489 121.391 219.83 119.804 229.091 116.455C238.351 113.106 246.391 107.987 254.163 102.803C271.845 91.0057 288.781 78.5407 304.884 65.4747C306.846 64.8907 308.086 66.3527 305.798 67.6217C291.591 77.6417 283.679 85.9827 275.805 98.3597C275.206 99.3027 274.618 100.368 275.014 101.333C275.359 102.171 276.36 102.714 277.304 103.199C279.576 104.365 281.848 105.532 284.118 106.698C281.832 109.298 279.546 111.896 277.26 114.495C274.321 110.749 267.929 109.329 262.107 109.883C256.285 110.437 250.857 112.605 245.587 114.736C237.201 118.124 228.813 121.513 220.427 124.901C219.278 125.365 218.111 125.834 216.856 126.036C214.911 126.349 212.951 125.996 211.031 125.734C192.958 123.265 174.312 128.917 156.886 134.47C136.245 141.048 115.561 147.672 95.9518 156.035C93.2118 152.674 92.2938 147.679 92.8728 143.624Z" fill="#89634B"/>
<path d="M194.929 117.829C195.85 118.369 196.441 119.37 196.839 120.397C198.289 124.127 197.656 128.408 196.647 132.338C196.463 133.055 196.062 133.931 195.361 133.879C195.17 131.102 194.355 128.386 193.001 126.014C192.431 125.014 191.76 124.06 191.398 122.955C190.662 120.702 191.877 116.041 194.929 117.829Z" fill="#676276"/>
<path d="M200.464 117.327C201.386 117.867 201.976 118.868 202.374 119.895C203.824 123.625 203.191 127.905 202.182 131.836C201.998 132.552 201.597 133.429 200.897 133.376C200.706 130.6 199.891 127.884 198.537 125.511C197.966 124.511 197.296 123.557 196.934 122.452C196.198 120.2 197.411 115.539 200.464 117.327Z" fill="#676276"/>
<path d="M205.997 116.825C206.919 117.365 207.509 118.366 207.907 119.393C209.358 123.123 208.723 127.404 207.716 131.334C207.531 132.05 207.13 132.927 206.43 132.874C206.239 130.098 205.424 127.382 204.07 125.009C203.499 124.009 202.829 123.055 202.467 121.951C201.731 119.698 202.945 115.037 205.997 116.825Z" fill="#676276"/>
<path d="M223.174 115.267C224.095 115.806 224.686 116.808 225.084 117.835C226.534 121.565 225.9 125.846 224.892 129.776C224.708 130.492 224.307 131.369 223.607 131.316C223.416 128.54 222.601 125.824 221.246 123.451C220.676 122.451 220.005 121.497 219.644 120.392C218.908 118.14 220.122 113.479 223.174 115.267Z" fill="#676276"/>
<path d="M228.708 114.765C229.629 115.304 230.218 116.306 230.618 117.332C232.068 121.062 231.435 125.343 230.426 129.274C230.242 129.99 229.841 130.867 229.139 130.814C228.948 128.038 228.133 125.322 226.779 122.949C226.209 121.949 225.538 120.995 225.176 119.891C224.443 117.638 225.656 112.977 228.708 114.765Z" fill="#676276"/>
<path d="M234.243 114.263C235.165 114.802 235.755 115.804 236.154 116.83C237.604 120.56 236.971 124.841 235.962 128.772C235.777 129.488 235.377 130.365 234.676 130.312C234.485 127.535 233.67 124.82 232.316 122.447C231.745 121.447 231.075 120.493 230.713 119.388C229.977 117.136 231.192 112.475 234.243 114.263Z" fill="#676276"/>
<path d="M295.546 33.8217C286.849 48.2237 284.562 66.2927 289.419 82.2157C293.024 74.7227 295.763 66.8927 296.857 58.6477C297.419 54.4127 297.585 50.1307 297.347 45.8767C297.233 43.8437 297.026 41.8157 296.727 39.8027C296.582 38.8357 295.121 34.5247 295.546 33.8217Z" fill="#7CB442"/>
<path d="M327.873 90.0328C313.549 85.0598 296.661 85.6438 282.646 91.5988C289.985 93.4578 297.522 94.5878 305.232 94.3598C309.194 94.2418 313.148 93.8068 317.026 93.0538C318.879 92.6938 320.716 92.2628 322.527 91.7578C323.397 91.5168 327.172 89.7898 327.873 90.0328Z" fill="#7CB442"/>
<path d="M323.578 39.0888C312.298 46.2878 306.882 56.6228 309.071 66.7678C314.008 62.8828 318.126 58.6678 320.648 53.9618C321.944 51.5428 322.846 49.0378 323.334 46.4868C323.568 45.2668 323.706 44.0378 323.748 42.8028C323.768 42.2098 323.028 39.4408 323.578 39.0888Z" fill="#7CB442"/>
<path d="M254.824 112.824C263.081 124.282 274.555 129.169 285.551 125.915C281.136 120.965 276.39 116.923 271.162 114.639C268.475 113.465 265.708 112.72 262.908 112.425C261.568 112.283 260.222 112.244 258.872 112.31C258.224 112.343 255.228 113.385 254.824 112.824Z" fill="#7CB442"/>
<path d="M232.908 87.9786C232.1 89.7656 230.931 91.5846 229.065 92.2826C229.045 91.1416 229.613 90.0706 230.102 89.0236C231.177 86.7156 231.913 84.2616 232.289 81.7616C232.487 80.4506 231.968 75.1696 233.396 75.0626C237.397 74.7656 233.575 86.5016 232.908 87.9786Z" fill="#585859"/>
<path d="M220.862 105.687C220.654 105.935 220.472 106.365 220.767 106.502C220.857 106.544 220.964 106.535 221.064 106.521C223.253 106.226 224.808 104.285 225.722 102.352C226.592 100.515 227.124 98.4526 226.679 96.5036C226.364 95.1236 225.765 96.8836 225.645 97.1396C225.207 98.0766 224.958 99.1356 224.496 100.091C223.53 102.084 222.307 103.969 220.862 105.687Z" fill="#585859"/>
<path d="M226.18 88.9937C225.932 91.2137 224.837 93.2797 223.527 95.1287C222.942 95.9537 222.252 96.7917 221.285 97.1207C222.849 94.8497 223.633 92.0857 223.485 89.3777C223.406 87.9367 223.076 86.4547 223.538 85.0757C223.6 84.8907 223.689 84.6957 223.861 84.5987C225.604 83.6207 226.266 88.2167 226.18 88.9937Z" fill="#585859"/>
<path d="M211.129 113.159C212.116 110.748 214.287 108.795 214.798 106.262C214.968 105.424 215.143 102.043 216.896 102.465C217.968 102.724 217.605 104.782 217.481 105.508C216.918 108.837 214.425 111.884 211.129 113.159Z" fill="#585859"/>
<path d="M149.646 194.015C150.239 193.859 150.596 193.276 150.883 192.74C154.889 185.228 157.259 176.895 157.785 168.474C157.897 166.676 155.904 163.853 154.903 166.497C154.567 167.386 154.862 168.702 154.742 169.64C154.546 171.164 154.119 172.691 153.804 174.198C152.417 180.804 151.031 187.409 149.646 194.015Z" fill="#585859"/>
<path d="M156.14 203.34C156.888 203.43 157.501 202.764 157.932 202.149C161.406 197.186 162.783 190.867 161.671 185.006C161.552 184.378 161.099 183.583 160.492 183.822C160.291 183.901 160.152 184.083 160.036 184.262C158.656 186.407 158.735 190.287 158.247 192.741C157.544 196.274 156.842 199.807 156.14 203.34Z" fill="#585859"/>
<path d="M160.071 160.854C161.885 158.797 163.156 156.277 163.722 153.618C164.222 151.273 164.178 148.859 164.101 146.474C164.085 145.981 164.046 145.438 163.695 145.095C161.464 142.915 160.705 148.89 160.655 149.886C160.472 153.541 160.265 157.197 160.071 160.854Z" fill="#585859"/>
<path d="M154.918 113.815C155.358 114.338 156.005 114.839 156.666 114.644C155.237 111.559 154.672 108.067 155.055 104.661C155.205 103.325 154.447 101.964 153.007 103.039C152.181 103.655 152.272 104.545 152.36 105.468C152.636 108.344 153.01 111.546 154.918 113.815Z" fill="#585859"/>
<path d="M153.549 95.0906C153.709 96.3316 154.093 97.6236 155.057 98.4246C155.137 95.5316 155.229 92.5806 156.23 89.8456C156.578 88.8966 157.041 87.9406 156.981 86.9396C156.965 86.6596 154.88 87.8746 154.74 88.0046C154.14 88.5656 153.624 89.3806 153.449 90.1816C153.133 91.6326 153.364 93.6526 153.549 95.0906Z" fill="#585859"/>
<path d="M156.924 101.459C157.169 102.585 157.763 103.596 158.35 104.586C157.728 103.536 158.658 100.671 158.882 99.5398C159.216 97.8548 159.79 95.9658 159.579 94.2538C157.003 94.0688 156.576 99.8498 156.924 101.459Z" fill="#585859"/>
<path d="M157.64 81.5227C157.676 81.8307 157.735 82.1487 157.925 82.3977C158.114 82.6477 158.466 82.8077 158.772 82.6977C159.436 79.4377 161.021 76.3367 163.316 73.8127C162.66 73.5097 161.847 73.6487 161.206 74.0007C158.668 75.3917 157.339 78.9027 157.64 81.5227Z" fill="#585859"/>
<path d="M20.3913 497.721C32.3072 427.118 45.6595 357.341 60.4384 288.412C80.044 282.532 87.9562 263.026 87.2903 241.554C86.6241 220.082 78.3675 195.465 69.5681 171.033C49.5379 115.436 26.3068 59.0381 0 2.13219C0.294578 -2.079 6.83958 0.207725 8.53781 6.70687C26.5091 52.837 46.1053 85.988 79.7579 129.991C82.3227 133.344 85.3235 137.008 89.1421 139.083C92.4619 140.886 95.5299 141.008 98.3309 141.051C105.071 141.155 111.811 141.259 118.546 141.363C124.865 151.453 131.181 161.54 137.5 171.63C121.014 165.453 108.52 170.194 103.552 179.502C98.5851 188.809 99.6876 201.949 100.846 214.776C102.683 235.181 104.522 255.592 106.359 275.997C106.611 278.791 106.857 281.624 106.073 283.854C104.857 287.309 101.313 288.987 98.1297 290.854C68.1679 308.432 72.707 388.207 64.3752 387.103C56.0433 385.998 61.2999 478.216 67.1254 527.119C52.2145 521.717 33.787 509.454 20.3913 497.721Z" fill="#89634B"/>
</svg>
