<svg width="57" height="76" viewBox="0 0 57 76" fill="none" xmlns="http://www.w3.org/2000/svg">
<path d="M28.7141 61C28.7141 61 13.7376 59.8808 7.08485 54.9886C0.431259 50.0968 5.03677 44.6087 5.03677 44.6087C5.03677 44.6087 -9.67048 28.6112 11.1783 20.4031C11.1783 20.4031 4.69484 14.3732 8.62843 6.87307C13.4421 -2.30408 35.9165 -3.46724 34.5505 10.6645C34.5505 10.6645 55.7993 9.6719 49.7339 26.6475C49.7339 26.6475 60.1404 33.3909 56.0456 44.6087C51.9512 55.8269 36.184 60.5805 28.7141 61Z" fill="#4CAF50"/>
<path d="M12.707 50.3138C12.2138 51.4048 11.2753 52.1489 10.6104 51.9747C9.94298 51.802 9.80084 50.7761 10.2935 49.6854C10.7857 48.596 11.7237 47.8511 12.3906 48.0253C13.0565 48.198 13.1991 49.2239 12.707 50.3138Z" fill="#4CAF50"/>
<path d="M17.5907 56.7188C16.5094 56.3334 15.817 55.7005 16.0426 55.3054C16.2683 54.9074 17.3281 54.8973 18.4097 55.2815C19.489 55.6665 20.1831 56.2995 19.9574 56.6968C19.7314 57.0922 18.67 57.1023 17.5907 56.7188Z" fill="#4CAF50"/>
<path d="M21.2722 43.2991C20.7971 42.206 20.9596 41.1866 21.6369 41.0231C22.3174 40.8565 23.2531 41.6093 23.7293 42.7012C24.2028 43.792 24.0398 44.814 23.3599 44.9772C22.6847 45.1426 21.7463 44.3902 21.2722 43.2991Z" fill="#4CAF50"/>
<path d="M8.70711 36.3134C8.21488 37.4043 7.27525 38.1483 6.61028 37.9749C5.94276 37.8007 5.8011 36.7756 6.29333 35.6844C6.78506 34.5954 7.72366 33.8514 8.39016 34.0252C9.05616 34.1982 9.19934 35.2229 8.70711 36.3134Z" fill="#4CAF50"/>
<path d="M9.59202 42.7187C8.51033 42.3337 7.81666 41.7004 8.04271 41.3053C8.26836 40.9067 9.32817 40.8979 10.4099 41.2817C11.4892 41.6668 12.1836 42.2994 11.9572 42.6961C11.7315 43.0922 10.6709 43.1025 9.59202 42.7187Z" fill="#4CAF50"/>
<path d="M5.27178 28.2999C4.79724 27.2063 4.95972 26.1868 5.63749 26.0229C6.31681 25.8571 7.25198 26.6087 7.7291 27.7015C8.20261 28.7927 8.04013 29.8126 7.36081 29.9773C6.68355 30.1423 5.74633 29.3896 5.27178 28.2999Z" fill="#4CAF50"/>
<path d="M22.4213 28.1943C22.9965 27.3839 23.9471 26.8627 24.5403 27.0319C25.1381 27.2004 25.1551 27.9959 24.578 28.8062C24.0028 29.6157 23.0541 30.1369 22.4572 29.9683C21.8621 29.8004 21.8456 29.0052 22.4213 28.1943Z" fill="#4CAF50"/>
<path d="M22.1345 17.5479C23.468 18.1888 24.2682 19.1351 23.9175 19.658C23.5664 20.1849 22.1994 20.0927 20.8653 19.4523C19.5307 18.8131 18.7316 17.8672 19.0827 17.3404C19.4323 16.8157 20.7999 16.9074 22.1345 17.5479Z" fill="#4CAF50"/>
<path d="M18.8985 34.7895C19.1401 35.89 18.936 36.8743 18.4403 36.9885C17.9428 37.1061 17.3446 36.308 17.1016 35.2106C16.8596 34.1124 17.0644 33.1262 17.5623 33.0112C18.0565 32.8951 18.6558 33.6929 18.8985 34.7895Z" fill="#4CAF50"/>
<path d="M12.6446 10.303C11.5999 11.0023 10.4624 11.2097 10.1077 10.7679C9.75071 10.3245 10.3105 9.39681 11.3565 8.69876C12.4004 7.99872 13.5357 7.78895 13.8935 8.23313C14.2478 8.67493 13.6893 9.60301 12.6446 10.303Z" fill="#4CAF50"/>
<path d="M13.5817 24.5359C12.9271 23.4705 12.8074 22.3672 13.3123 22.0743C13.8207 21.7769 14.7631 22.3989 15.4186 23.4634C16.0724 24.5259 16.1938 25.6304 15.6858 25.9266C15.1792 26.222 14.2359 25.5991 13.5817 24.5359Z" fill="#4CAF50"/>
<path d="M39.1951 52.3143C39.5239 53.404 40.1499 54.1483 40.5932 53.9749C41.0375 53.8 41.133 52.7765 40.8045 51.6857C40.4764 50.5965 39.8503 49.8514 39.4064 50.0252C38.9624 50.1993 38.8673 51.2239 39.1951 52.3143Z" fill="#4CAF50"/>
<path d="M34.4088 57.718C35.4906 57.3337 36.1836 56.7006 35.9571 56.3047C35.7322 55.9074 34.6719 55.8977 33.5905 56.2811C32.511 56.6663 31.8169 57.2994 32.0426 57.696C32.2686 58.0926 33.3298 58.1024 34.4088 57.718Z" fill="#4CAF50"/>
<path d="M34.8193 38.7246C35.1353 37.9048 35.0263 37.1399 34.5751 37.0173C34.1219 36.8926 33.4992 37.4561 33.1812 38.2759C32.8645 39.0946 32.9735 39.8597 33.4263 39.983C33.8771 40.1068 34.5019 39.5421 34.8193 38.7246Z" fill="#4CAF50"/>
<path d="M50.2928 36.7355C50.7855 37.5528 51.7235 38.1115 52.3894 37.9811C53.0563 37.8507 53.1995 37.0822 52.7068 36.2639C52.2151 35.4466 51.2772 34.8885 50.6092 35.0189C49.9433 35.1481 49.8012 35.9175 50.2928 36.7355Z" fill="#4CAF50"/>
<path d="M47.4094 45.7183C48.4916 45.3333 49.1841 44.7001 48.9568 44.3047C48.732 43.9075 47.6725 43.8974 46.5903 44.2818C45.5122 44.6665 44.8169 45.2987 45.0425 45.6966C45.2694 46.093 46.33 46.1018 47.4094 45.7183Z" fill="#4CAF50"/>
<path d="M47.8181 31.2998C48.1358 30.2058 48.0264 29.1871 47.5754 29.0228C47.1212 28.8573 46.4983 29.6095 46.1813 30.7011C45.8647 31.7931 45.973 32.8137 46.4264 32.9773C46.8775 33.1424 47.5022 32.3894 47.8181 31.2998Z" fill="#4CAF50"/>
<path d="M36.5792 20.5926C36.003 19.5108 35.0531 18.817 34.4599 19.0425C33.862 19.2669 33.845 20.3276 34.4212 21.407C34.9974 22.4883 35.9463 23.1833 36.5433 22.9574C37.1375 22.733 37.1545 21.6731 36.5792 20.5926Z" fill="#4CAF50"/>
<path d="M20.4926 11.3653C19.4245 11.7928 18.7861 12.4227 19.0657 12.7719C19.3467 13.1234 20.4395 13.0616 21.5076 12.6353C22.5748 12.2084 23.2145 11.5779 22.934 11.2266C22.6539 10.8772 21.5595 10.9383 20.4926 11.3653Z" fill="#4CAF50"/>
<path d="M36.1018 30.7898C35.8598 31.8904 36.0639 32.8748 36.56 32.9883C37.0569 33.1071 37.6553 32.3092 37.8985 31.2098C38.1405 30.1118 37.9352 29.1274 37.4383 29.0113C36.9429 28.8948 36.3438 29.6934 36.1018 30.7898Z" fill="#4CAF50"/>
<path d="M42.3551 17.303C43.3994 18.001 44.5369 18.2104 44.8921 17.7678C45.2495 17.3248 44.6901 16.3971 43.6436 15.6979C42.6006 14.9986 41.464 14.7892 41.1061 15.233C40.7527 15.6744 41.3107 16.6033 42.3551 17.303Z" fill="#4CAF50"/>
<path d="M44.4188 24.5359C45.0725 23.4705 45.193 22.3672 44.6873 22.0743C44.1789 21.7769 43.2367 22.3989 42.5813 23.4634C41.9276 24.5259 41.8061 25.6304 42.3145 25.9266C42.8211 26.222 43.7647 25.5991 44.4188 24.5359Z" fill="#4CAF50"/>
<path d="M31.7585 8.72302C31.3052 7.62854 30.3781 6.86589 29.684 7.01973C28.9872 7.17279 28.7915 8.18518 29.2422 9.27851C29.695 10.3715 30.6237 11.1341 31.3194 10.9803C32.0119 10.8276 32.2081 9.81597 31.7585 8.72302Z" fill="#4CAF50"/>
<path d="M39.5362 37.9752C36.4647 41.5409 33.3927 45.108 30.3203 48.6744C30.3203 42.1237 30.3203 35.5715 30.3203 29.02C30.3203 27.66 27.7378 27.66 27.7378 29.02C27.7378 36.6013 27.7378 44.1833 27.7378 51.7642C27.6658 51.9488 27.6703 52.1258 27.7378 52.2864C27.7378 52.7254 27.7378 53.1629 27.7378 53.6026C24.6461 50.0125 21.5554 46.4239 18.4642 42.8353C17.5151 41.7325 15.2737 42.7849 16.2344 43.8997C20.0695 48.3511 23.9023 52.8031 27.7378 57.2544C27.7378 63.1636 27.7378 69.0721 27.7378 74.9805C27.7378 76.3398 30.3203 76.3398 30.3203 74.9805C30.3203 67.4295 30.3203 59.8786 30.3203 52.3269C34.1361 47.8978 37.9501 43.4684 41.7655 39.0397C42.7262 37.9241 40.4857 36.8721 39.5362 37.9752Z" fill="#93440E"/>
</svg>
