<svg width="316" height="332" viewBox="0 0 316 332" fill="none" xmlns="http://www.w3.org/2000/svg">
<path d="M71.856 149.983C71.856 149.983 65.746 145.038 57.086 137.917C48.416 130.795 41.446 132.448 28.926 149.983C16.416 167.518 9.91595 173.975 3.41595 170.412C-3.08405 166.85 -0.194098 150.157 11.1159 122.779C20.2559 127.23 24.836 131.847 24.836 131.847C24.836 131.847 20.256 122.202 16.166 117.15C31.806 101.412 47.6959 99.6322 58.2859 101.191C68.8759 102.75 85.866 111.338 100.356 133.086C116.526 161.288 135.776 213.819 135.776 229.173C135.776 244.528 129.996 259.889 118.446 239.189C106.896 218.49 71.856 149.983 71.856 149.983Z" fill="#6D5D1B"/>
<path d="M127.286 215.241C117.006 201.128 110.986 177.757 106.416 157.502C101.836 137.246 91.976 101.412 84.756 79.8204C77.536 58.2294 66.226 41.5364 75.126 19.0564C91.976 23.0634 91.7361 26.6254 98.4761 36.6414C105.216 46.6574 120.126 59.1204 124.466 78.2644C116.516 82.7154 105.696 90.2844 105.696 90.2844L125.126 83.3834C125.126 83.3834 134.576 110.263 137.826 128.762C141.066 147.262 143.106 208.874 127.286 215.241Z" fill="#A48E2C"/>
<path d="M84.756 79.8204C91.976 101.412 101.846 137.246 106.416 157.502C110.986 177.757 117.006 201.128 127.286 215.241C130.836 213.815 133.486 209.609 135.416 203.742C133.186 196.588 130.726 191.99 130.726 191.99C120.866 148.577 107.146 91.3925 96.796 66.0185C86.446 40.6445 75.1359 19.0535 75.1359 19.0535C66.2259 41.5395 77.536 58.2294 84.756 79.8204Z" fill="#897522"/>
<path d="M167.396 63.7743C167.396 63.7743 180.296 39.5323 185.586 33.0783C194.736 36.4173 198.826 43.0943 198.826 43.0943C198.826 43.0943 192.566 31.5193 190.166 27.5133C199.306 14.1583 221.206 -3.42673 228.666 0.580273C236.126 4.58627 234.446 15.0463 226.496 28.1813C219.526 27.7373 211.336 25.9543 211.336 25.9543C211.336 25.9543 216.156 31.0723 223.856 33.5223C217.356 46.4333 204.366 73.8103 194.976 111.648C188.236 112.092 175.766 111.648 175.766 111.648C175.766 111.648 189.446 114.319 193.056 116.098C189.266 132.014 186.916 138.524 184.026 148.707C181.136 158.89 180.236 169.073 177.536 180.425C174.826 191.776 170.096 208.006 170.096 208.006C170.096 208.006 139.086 185.533 140.356 164.449C141.606 143.365 167.396 63.7743 167.396 63.7743Z" fill="#A48E2C"/>
<path d="M161.676 151.555C161.676 151.555 150.416 157.061 147.946 185.754C156.766 198.347 170.086 208.006 170.086 208.006C170.086 208.006 174.816 191.777 177.526 180.425C180.236 169.073 181.136 158.89 184.026 148.707C186.916 138.524 189.256 132.014 193.046 116.098C189.436 114.319 175.766 111.648 175.766 111.648C175.766 111.648 188.236 112.092 194.976 111.648C204.356 73.8113 217.356 46.4333 223.846 33.5233C216.146 31.0753 211.336 25.9543 211.336 25.9543C211.336 25.9543 219.516 27.7333 226.496 28.1813C234.436 15.0503 236.126 4.58627 228.666 0.580273C228.116 0.289273 227.486 0.122246 226.806 0.0522461C226.496 0.453246 196.266 39.3823 181.696 86.2443L161.676 151.555Z" fill="#897522"/>
<path d="M306.036 78.8955C299.716 81.2335 279.686 90.9156 279.686 90.9156C279.686 90.9156 277.876 97.4256 278.236 110.28C275.346 106.107 272.646 95.2556 272.646 95.2556C272.646 95.2556 241.056 117.625 225.356 137.157C209.656 156.688 191.966 185.234 183.486 203.43C176.146 219.162 172.596 246.178 175.616 254.021C175.526 254.675 175.436 255.33 175.376 255.984C174.356 265.523 172.736 275.465 171.016 285.992C168.686 300.272 166.286 315.035 165.256 329.839L169.586 330.093C170.596 315.463 172.986 300.786 175.306 286.59C177.026 276.013 178.656 266.02 179.686 256.378C179.686 256.355 179.696 256.331 179.696 256.308C189.516 255.56 200.886 236.963 211.636 220.958C223.186 203.764 245.026 168.206 259.286 151.012C273.546 133.818 299.716 110.948 308.556 101.433C317.406 91.9166 311.266 91.4165 315.236 83.9035C318.126 76.8895 312.346 76.5585 306.036 78.8955Z" fill="#A48E2C"/>
<path d="M315.736 79.3438C315.736 79.3438 281.846 109.78 259.826 130.813C237.806 151.847 216.516 177.722 206.586 193.748C196.656 209.773 184.746 233.979 177.526 256.181C187.816 258.351 200.086 238.152 211.636 220.958C223.186 203.764 245.026 168.206 259.286 151.012C273.546 133.818 299.716 110.948 308.556 101.433C317.406 91.9176 311.266 91.4168 315.236 83.9048C316.086 81.8348 316.186 80.3518 315.736 79.3438Z" fill="#6D5D1B"/>
<path d="M130.636 203.405C130.636 203.405 130.056 164.402 136.376 135.189C142.686 105.975 150.846 84.2744 159.136 72.7554C167.416 61.2374 174.996 58.3994 178.966 61.4044C182.936 64.4094 184.926 74.4254 180.956 89.2824C176.986 104.139 170.806 135.857 170.806 135.857C170.806 135.857 159.116 134.521 153.876 137.025C163.086 140.364 169.766 139.863 169.766 139.863C169.766 139.863 165.796 162.489 165.156 171.123C164.536 179.76 130.636 203.405 130.636 203.405Z" fill="#6D5D1B"/>
<path d="M139.686 323.334C135.056 303.97 125.256 276.382 122.196 267.949C123.636 264.129 123.216 257.098 119.226 239.41C113.396 213.591 97.8558 193.78 88.9258 175.974C79.9958 158.169 70.6657 126.562 58.6357 113.651C64.8957 156.163 82.6458 209.972 93.8358 227.5C103.776 243.079 116.096 266.039 118.726 270.954C122.296 280.893 131.146 306.177 135.456 324.196L139.686 323.334Z" fill="#A48E2C"/>
<path d="M160.356 331.721C155.576 309.155 151.946 258.69 151.916 258.183L156.236 257.919C156.266 258.423 159.876 308.634 164.606 330.95L160.356 331.721Z" fill="#897522"/>
<path d="M147.396 320.924C139.726 293 138.156 259.418 138.146 259.081L142.476 258.918C142.486 259.252 144.036 292.428 151.596 319.939L147.396 320.924Z" fill="#897522"/>
<path d="M169.946 209.027C169.946 209.027 173.316 187.994 166.696 174.195C160.076 160.396 157.916 161.618 147.086 175.307C136.256 188.995 126.266 207.916 126.756 222.606C127.236 237.296 122.176 237.296 127.836 251.429C131.976 261.785 139.416 264.43 143.096 265.107C143.106 265.238 143.116 265.378 143.126 265.505C143.306 267.538 143.476 269.601 143.656 271.685C144.966 287.396 146.446 305.208 152.926 321.992L157.006 320.643C150.726 304.364 149.326 287.593 147.966 271.374C147.816 269.488 147.656 267.628 147.496 265.785C164.316 268.469 164.726 249.275 164.896 239.186C165.076 228.669 169.226 213.144 169.226 213.144L149.826 215.174C149.846 215.054 149.866 214.937 149.876 214.817L169.946 209.027Z" fill="#A48E2C"/>
<path d="M164.896 239.186C165.076 228.669 169.226 213.144 169.226 213.144L147.966 215.371L169.946 209.027C169.946 209.027 173.316 187.994 166.696 174.195C163.666 167.865 161.566 164.706 159.136 164.449C159.136 164.449 155.326 180.926 151.176 195.95C147.026 210.974 143.716 247.757 145.286 265.339C164.286 270.126 164.716 249.706 164.896 239.186Z" fill="#6D5D1B"/>
</svg>
