<svg width="1446" height="372" viewBox="0 0 1446 372" fill="none" xmlns="http://www.w3.org/2000/svg">
<g clip-path="url(#clip0_343_279)">
<path d="M0 0H1446V372H0V0Z" fill="url(#paint0_linear_343_279)"/>
<path d="M843.5 0.508596C868.532 42.664 924.334 68.2342 977.034 61.6965C1004.94 58.2346 1030.75 46.8472 1057.7 39.4564C1084.65 32.0665 1115.33 29.0375 1139.83 41.5341C1167.76 55.7783 1180.81 86.5489 1207.86 102.096C1238.33 119.605 1277.98 113.615 1313.31 106.677C1336.85 102.056 1363.81 97.894 1383.08 110.872C1406.02 126.318 1405.24 157.809 1395.4 181.99C1385.56 206.172 1368.89 228.805 1367.07 254.5C1365.43 277.702 1376.52 300.544 1392.88 318.559C1409.25 336.572 1430.59 350.357 1452.32 363L1452.36 -12.1034C1253.93 -8.32232 1041.93 -3.27157 843.5 0.508596Z" fill="#FFEE58"/>
<path d="M952.692 -20.7917C963.659 12.4425 985.748 44.7886 1020.67 59.5486C1055.31 74.1868 1095.93 69.2235 1133.4 62.1574C1170.86 55.0912 1209.58 46.2044 1246.88 53.9144C1276.3 59.995 1302.84 76.6522 1319.31 99.3747C1333.73 119.268 1340.61 143.352 1357.58 161.551C1379.26 184.807 1416.9 194.927 1449.24 186.198V-9.34393C1425.9 -9.34393 1400.07 -9.3313 1376.73 -9.3313L952.692 -20.7917Z" fill="#1C5620"/>
<path d="M1451.33 337.627C1427.73 329.51 1411.01 309.2 1406.79 287.095C1404.57 275.447 1406.26 263.934 1411.12 252.998C1416.5 240.893 1424.61 229.66 1427.97 216.866C1431.01 205.249 1428.73 193.607 1421.11 183.794C1413.63 174.175 1402.6 167.19 1390.6 162.807C1360.98 151.994 1327.37 155.451 1298.1 143.6C1284.07 137.92 1273.58 128.653 1265.03 117.322C1256.98 106.66 1250.54 95.0615 1242.02 84.6787C1227.07 66.4695 1206.36 52.4408 1183.23 43.6288C1160.09 34.8142 1134.45 31.0854 1109.42 33.5102C1096.29 34.7826 1083.57 37.8017 1071.38 42.3475C1056.03 48.0682 1041.48 55.5997 1025.56 60.0598C1010.32 64.3332 992.907 65.8914 978.091 59.4745C965.816 54.1578 957.288 44.2781 950.501 33.971C937.534 14.2793 928.329 -11.0258 903.583 -21.5547C898.111 -23.8831 892.231 -25.0707 886.175 -24.9967C884.884 -24.9814 884.88 -23.177 886.175 -23.1932C915.504 -23.5521 930.737 4.35909 942.282 24.2726C948.258 34.5797 954.749 45.0798 964.32 53.0829C974.606 61.6829 987.821 65.7941 1001.81 65.5686C1033.88 65.0528 1060 45.5793 1090.15 38.4933C1115.19 32.6058 1141.94 33.5544 1166.69 40.1841C1191.32 46.7832 1214.15 59.0733 1231.58 76.1129C1240.98 85.3054 1248 95.8957 1255.11 106.549C1262.34 117.37 1270.02 128.344 1281.06 136.381C1305.41 154.1 1338.43 153.473 1367.66 158.736C1382.69 161.444 1397.62 165.927 1409.44 174.994C1420.02 183.111 1427.63 194.462 1427.36 207.248C1427.08 220.724 1419.14 232.855 1412.97 244.742C1407.48 255.306 1403.5 266.079 1403.79 277.857C1404.32 298.972 1416.41 319.731 1435.54 332.038C1440.26 335.071 1445.38 337.504 1450.79 339.365C1452 339.782 1452.52 338.038 1451.33 337.627Z" fill="white"/>
<path d="M610.867 370.491C585.835 328.336 530.032 302.766 477.333 309.303C449.422 312.765 423.613 324.153 396.666 331.543C369.719 338.933 339.032 341.962 314.532 329.466C286.607 315.222 273.554 284.451 246.505 268.904C216.042 251.395 176.388 257.385 141.054 264.323C117.521 268.943 90.5609 273.106 71.2879 260.128C48.3497 244.682 49.1229 213.191 58.9637 189.01C68.8046 164.828 85.4807 142.195 87.2952 116.499C88.933 93.298 77.8491 70.4556 61.4842 52.4412C45.1193 34.4276 23.7747 20.6424 2.04858 7.99979L2.00836 383.103C200.435 379.322 412.44 374.271 610.867 370.491Z" fill="#FFEE58"/>
<path d="M496.552 387C485.586 353.766 463.496 321.42 428.571 306.66C393.935 292.022 353.311 296.985 315.848 304.051C278.384 311.117 239.669 320.004 202.363 312.294C172.941 306.213 146.405 289.556 129.935 266.834C115.517 246.94 108.635 222.857 91.6664 204.657C69.9834 181.401 32.3472 171.282 -7.62939e-06 180.011V375.552C23.3429 375.552 49.176 375.54 72.5189 375.54L496.552 387Z" fill="#E5E7EB"/>
<path d="M496.553 387C485.586 353.766 463.496 321.42 428.571 306.66C393.935 292.022 353.311 296.985 315.848 304.051C278.384 311.117 239.669 320.004 202.363 312.294C172.941 306.213 146.405 289.556 129.935 266.834C115.518 246.94 108.635 222.857 91.6666 204.657C69.9836 181.401 32.3474 171.282 0.000175476 180.011V375.552C23.343 375.552 49.1762 375.54 72.5191 375.54L496.553 387Z" fill="#1C5620"/>
<path d="M1.52731 25.3726C25.1252 33.4903 41.8405 53.7997 46.062 75.9044C48.2873 87.5534 46.5913 99.0661 41.7311 110.002C36.3518 122.107 28.2392 133.34 24.8863 146.134C21.8426 157.751 24.119 169.393 31.7437 179.206C39.2177 188.825 50.2545 195.81 62.2553 200.193C91.8682 211.006 125.483 207.549 154.752 219.399C168.782 225.08 179.273 234.347 187.826 245.678C195.876 256.34 202.309 267.938 210.832 278.321C225.779 296.53 246.492 310.559 269.622 319.371C292.758 328.186 318.406 331.914 343.433 329.49C356.565 328.217 369.282 325.198 381.475 320.652C396.822 314.932 411.375 307.4 427.288 302.94C442.533 298.667 459.945 297.108 474.761 303.525C487.037 308.842 495.564 318.722 502.351 329.029C515.318 348.721 524.523 374.026 549.269 384.555C554.742 386.883 560.621 388.071 566.677 387.997C567.969 387.981 567.973 386.177 566.677 386.193C537.349 386.552 522.115 358.641 510.571 338.727C504.595 328.42 498.104 317.92 488.532 309.917C478.246 301.317 465.032 297.206 451.038 297.431C418.975 297.947 392.85 317.421 362.706 324.507C337.659 330.394 310.909 329.445 286.166 322.816C261.537 316.217 238.697 303.927 221.275 286.887C211.876 277.694 204.85 267.104 197.738 256.451C190.516 245.63 182.833 234.655 171.79 226.619C147.443 208.9 114.42 209.527 85.1955 204.263C70.1631 201.555 55.2371 197.073 43.413 188.006C32.8291 179.889 25.2216 168.538 25.4878 155.752C25.7679 142.276 33.7158 130.145 39.8865 118.258C45.3702 107.694 49.3567 96.9208 49.0615 85.143C48.5313 64.0283 36.4411 43.269 17.3098 30.9618C12.5952 27.9291 7.47396 25.4962 2.06149 23.6349C0.853477 23.2184 0.331322 24.9614 1.52731 25.3726Z" fill="#E5E7EB"/>
</g>
<defs>
<linearGradient id="paint0_linear_343_279" x1="0" y1="186" x2="1446" y2="186" gradientUnits="userSpaceOnUse">
<stop offset="1" stop-color="#4CAF50"/>
</linearGradient>
<clipPath id="clip0_343_279">
<path d="M0 0H1446V372H0V0Z" fill="white"/>
</clipPath>
</defs>
</svg>
